<?xml version="1.0" encoding="UTF-8" standalone="no"?>
<!DOCTYPE svg PUBLIC "-//W3C//DTD SVG 1.1//EN" "http://www.w3.org/Graphics/SVG/1.1/DTD/svg11.dtd">
<svg width="100%" height="100%" viewBox="0 0 52 20" version="1.1" xmlns="http://www.w3.org/2000/svg" xmlns:xlink="http://www.w3.org/1999/xlink" xml:space="preserve" xmlns:serif="http://www.serif.com/" style="fill-rule:evenodd;clip-rule:evenodd;stroke-linecap:round;stroke-linejoin:round;stroke-miterlimit:1;">
    <g id="button_red">
        <rect id="bg" x="0" y="0" width="52" height="20" style="fill:white;fill-opacity:0;"/>
        <g id="icon">
            <path id="solid" d="M50,10.35C50,6.128 46.572,2.7 42.35,2.7L10.65,2.7C6.428,2.7 3,6.128 3,10.35C3,14.572 6.428,18 10.65,18L42.35,18C46.572,18 50,14.572 50,10.35Z" style="fill:rgb(255,0,93);"/>
            <g id="light">
                <path id="shadow" d="M46.767,3.577C48.728,5.035 50,7.37 50,10C50,14.415 46.415,18 42,18L10,18C7.639,18 40.833,16.724 40.833,16.724C44.84,16.688 48.605,13.025 48.641,9.127C48.659,7.073 48.041,4.994 46.767,3.577Z" style="fill:rgb(195,3,73);"/>
                <path id="highlight" d="M47.314,13.043C47.314,13.043 45.888,15.476 42.658,16.45C40.773,17.019 32.984,17.028 32.984,17.028C32.984,17.028 39.282,16.557 41.868,16.036C44.892,15.427 47.314,13.043 47.314,13.043Z" style="fill:rgb(255,225,236);"/>
            </g>
            <path id="stroke" d="M50,10C50,5.585 46.415,2 42,2L10,2C5.585,2 2,5.585 2,10C2,14.415 5.585,18 10,18L42,18C46.415,18 50,14.415 50,10Z" style="fill:none;stroke:black;stroke-width:0.83px;"/>
        </g>
    </g>
</svg>
