<?xml version="1.0" encoding="UTF-8" standalone="no"?>
<!DOCTYPE svg PUBLIC "-//W3C//DTD SVG 1.1//EN" "http://www.w3.org/Graphics/SVG/1.1/DTD/svg11.dtd">
<svg width="100%" height="100%" viewBox="0 0 52 20" version="1.1" xmlns="http://www.w3.org/2000/svg" xmlns:xlink="http://www.w3.org/1999/xlink" xml:space="preserve" xmlns:serif="http://www.serif.com/" style="fill-rule:evenodd;clip-rule:evenodd;stroke-linecap:round;stroke-linejoin:round;stroke-miterlimit:1;">
    <g id="button_red">
        <rect id="bg" x="0" y="0" width="52" height="20" style="fill:rgb(195,3,73);fill-opacity:0;"/>
        <g id="icon">
            <path d="M50,10.346C50,6.121 46.57,2.692 42.346,2.692L10.622,2.692C6.398,2.692 2.968,6.121 2.968,10.346C2.968,14.57 6.398,18 10.622,18L42.346,18C46.57,18 50,14.57 50,10.346Z" style="fill:rgb(255,0,93);"/>
            <path d="M46.767,3.577C48.728,5.035 50,7.37 50,10C50,14.415 46.415,18 42,18L10,18C7.639,18 40.833,16.724 40.833,16.724C44.84,16.688 48.605,13.025 48.641,9.127C48.659,7.073 48.041,4.994 46.767,3.577Z" style="fill:rgb(195,3,73);"/>
            <path d="M50,10C50,5.585 46.415,2 42,2L10,2C5.585,2 2,5.585 2,10C2,14.415 5.585,18 10,18L42,18C46.415,18 50,14.415 50,10Z" style="fill:none;stroke:black;stroke-width:0.83px;"/>
        </g>
    </g>
</svg>
