<svg width="100%" height="100%" viewBox="0 0 52 20" version="1.1" xmlns="http://www.w3.org/2000/svg"
     style="fill-rule:evenodd;clip-rule:evenodd;stroke-linecap:round;stroke-linejoin:round;stroke-miterlimit:1;">
    <g id="button_blue">
        <rect id="bg" x="0" y="0" width="52" height="20" style="fill:white;fill-opacity:0;"/>
        <g id="icon">
            <rect id="solid" x="3" y="2.5" width="47" height="15.5" rx="8" ry="8" style="fill:rgb(0,71,255);"/>
            <g id="light" fill-opacity="1">
                <path id="shadow"
                      d="M46.767,3.577C48.728,5.035 50,7.37 50,10C50,14.415 46.415,18 42,18L10,18C7.639,18 40.833,16.724 40.833,16.724C44.84,16.688 48.605,13.025 48.641,9.127C48.659,7.073 48.041,4.994 46.767,3.577Z"
                      style="fill:rgb(0,52,185);"/>
                <path id="highlight"
                      d="M47.314,13.043C47.314,13.043 45.888,15.476 42.658,16.45C40.773,17.019 32.984,17.028 32.984,17.028C32.984,17.028 39.282,16.557 41.868,16.036C44.892,15.427 47.314,13.043 47.314,13.043Z"
                      style="fill:rgb(255,225,236);"/>
            </g>
            <rect id="stroke" x="2" y="2" width="48" height="16" rx="8" ry="8"
                  style="fill:none;stroke:black;stroke-width:0.83px;">
            </rect>
        </g>
        <rect id="bound" x="0" y="0" width="52" height="20" style="fill:white;fill-opacity:0;"/>
    </g>
</svg>
