<?xml version="1.0" encoding="UTF-8" standalone="no"?>
<!DOCTYPE svg PUBLIC "-//W3C//DTD SVG 1.1//EN" "http://www.w3.org/Graphics/SVG/1.1/DTD/svg11.dtd">
<svg width="100%" height="100%" viewBox="0 0 24 24" version="1.1" xmlns="http://www.w3.org/2000/svg" xmlns:xlink="http://www.w3.org/1999/xlink" xml:space="preserve" xmlns:serif="http://www.serif.com/" style="fill-rule:evenodd;clip-rule:evenodd;stroke-linecap:round;stroke-linejoin:round;stroke-miterlimit:1;">
    <g id="ic_cancel">
        <rect id="bg" x="0" y="0" width="24" height="24" style="fill:rgb(235,235,235);fill-opacity:0;"/>
        <g id="icon">
            <path d="M10.145,11.865C10.336,11.674 10.349,11.369 10.176,11.162C9.389,10.223 7.358,7.797 7.358,7.797C6.979,7.396 6.753,6.808 6.996,6.493C7.01,6.476 7.129,6.336 7.146,6.322C7.448,6.056 7.921,6.344 8.316,6.714L11.911,9.763L15.949,5.987C16.351,5.61 16.982,5.62 17.373,6.009C17.389,6.025 17.404,6.041 17.42,6.056C17.804,6.438 17.814,7.055 17.442,7.449L13.689,11.426L18.261,15.702C18.457,15.885 18.569,16.139 18.574,16.407C18.578,16.674 18.473,16.931 18.283,17.12C18.067,17.335 17.83,17.571 17.612,17.788C17.413,17.987 17.141,18.097 16.858,18.092C16.576,18.088 16.308,17.97 16.114,17.765L11.911,13.31L7.886,17.394C7.7,17.591 7.322,17.763 7.051,17.767C6.78,17.771 6.518,17.666 6.326,17.475C6.114,17.263 6.244,17.39 6.029,17.176C5.829,16.977 5.754,16.836 5.758,16.554C5.763,16.271 6.093,15.893 6.3,15.699C6.3,15.699 9.15,12.857 10.145,11.865Z" style="fill:rgb(255,47,89);"/>
            <path d="M5.489,16.533L6.046,17.09C6.234,17.279 6.492,17.383 6.759,17.379C7.026,17.375 7.28,17.263 7.462,17.068C7.462,17.068 10.274,14.075 11.277,13.008C11.368,12.911 11.494,12.856 11.627,12.856C11.759,12.856 11.886,12.911 11.977,13.008C12.975,14.07 15.763,17.038 15.763,17.038C15.953,17.24 16.217,17.357 16.495,17.362C16.773,17.366 17.041,17.257 17.237,17.061C17.452,16.846 17.685,16.613 17.897,16.401C18.084,16.214 18.187,15.959 18.183,15.695C18.183,15.68 18.182,15.665 18.181,15.65L18.266,15.73C18.458,15.911 18.569,16.162 18.574,16.426C18.578,16.69 18.475,16.945 18.288,17.132C18.075,17.344 17.842,17.577 17.628,17.792C17.431,17.988 17.163,18.097 16.886,18.092C16.608,18.088 16.344,17.971 16.153,17.769L12.017,13.366L7.853,17.799C7.67,17.993 7.416,18.106 7.149,18.11C6.882,18.114 6.625,18.01 6.436,17.821C6.227,17.612 5.998,17.383 5.787,17.172C5.615,17 5.51,16.773 5.489,16.533ZM17.335,6.097C17.355,6.113 17.374,6.131 17.392,6.15C17.408,6.165 17.423,6.18 17.438,6.196C17.816,6.573 17.826,7.183 17.46,7.572L13.948,11.31L13.696,11.073C13.519,10.907 13.511,10.629 13.677,10.453C14.557,9.516 17.069,6.841 17.069,6.841C17.265,6.633 17.353,6.362 17.335,6.097Z" style="fill:rgb(209,0,42);"/>
            <path d="M10.268,11.503L6.587,7.585C6.214,7.188 6.224,6.568 6.609,6.183C6.624,6.168 6.64,6.152 6.655,6.137C7.033,5.759 7.642,5.75 8.031,6.115L12.017,9.86L15.99,6.128C16.387,5.755 17.008,5.765 17.392,6.15C17.408,6.165 17.423,6.18 17.438,6.196C17.816,6.573 17.826,7.183 17.46,7.572L13.767,11.503L18.266,15.73C18.458,15.911 18.569,16.162 18.574,16.426C18.578,16.69 18.475,16.945 18.288,17.132C18.075,17.344 17.842,17.577 17.628,17.792C17.431,17.988 17.163,18.097 16.886,18.092C16.608,18.088 16.344,17.971 16.153,17.769L12.017,13.366L7.853,17.799C7.67,17.993 7.416,18.106 7.149,18.11C6.882,18.114 6.625,18.01 6.436,17.821C6.227,17.612 5.998,17.383 5.787,17.172C5.59,16.974 5.481,16.705 5.485,16.426C5.489,16.147 5.607,15.882 5.81,15.691L10.268,11.503Z" style="fill:none;stroke:black;stroke-width:0.42px;"/>
            <ellipse cx="17.28" cy="16.043" rx="0.236" ry="0.235" style="fill:white;"/>
            <path d="M16.164,14.947C16.092,15.021 16.093,15.14 16.167,15.212L16.725,15.755C16.799,15.828 16.918,15.826 16.991,15.752C17.063,15.678 17.061,15.559 16.987,15.486L16.43,14.943C16.355,14.871 16.236,14.872 16.164,14.947Z" style="fill:white;"/>
        </g>
    </g>
</svg>
