<svg width="100%" height="100%" viewBox="0 0 24 24" version="1.1" xmlns="http://www.w3.org/2000/svg"
     xmlns:xlink="http://www.w3.org/1999/xlink" xml:space="preserve"
     style="fill-rule:evenodd;clip-rule:evenodd;stroke-linejoin:round;stroke-miterlimit:1.41421;">
    <g id="ic_cancel">
        <rect id="bg" x="0" y="0" width="24" height="24" style="fill:rgb(235,235,235);fill-opacity:0;"/>
        <g>
            <path d="M10.519,11.928C10.722,11.733 10.732,11.412 10.544,11.204C9.67,10.241 7.409,7.746 7.409,7.746C7.037,7.35 6.809,6.745 7.085,6.484C7.101,6.469 7.115,6.452 7.131,6.438C7.416,6.173 7.972,6.406 8.361,6.771L12.017,9.86L15.99,6.128C16.387,5.755 17.008,5.765 17.392,6.15C17.408,6.165 17.423,6.18 17.438,6.196C17.816,6.573 17.826,7.183 17.46,7.572L13.767,11.503L18.266,15.73C18.458,15.911 18.569,16.162 18.574,16.426C18.578,16.69 18.475,16.945 18.288,17.132C18.075,17.344 17.842,17.577 17.628,17.792C17.431,17.988 17.163,18.097 16.886,18.092C16.608,18.088 16.344,17.971 16.153,17.769L12.017,13.366L8.057,17.402C7.874,17.597 7.62,17.709 7.353,17.713C7.086,17.717 6.829,17.613 6.64,17.424C6.431,17.215 6.558,17.34 6.347,17.129C6.15,16.932 6.076,16.793 6.081,16.514C6.085,16.235 6.337,15.963 6.54,15.772C6.54,15.772 9.476,12.936 10.519,11.928Z"
                  style="fill:rgb(255,47,89);"/>
            <path d="M5.489,16.533L6.046,17.09C6.234,17.279 6.492,17.383 6.759,17.379C7.026,17.375 7.28,17.263 7.462,17.068C7.462,17.068 10.274,14.075 11.277,13.008C11.368,12.911 11.494,12.856 11.627,12.856C11.759,12.856 11.886,12.911 11.977,13.008C12.975,14.07 15.763,17.038 15.763,17.038C15.953,17.24 16.217,17.357 16.495,17.362C16.773,17.366 17.041,17.257 17.237,17.061C17.452,16.846 17.685,16.613 17.897,16.401C18.084,16.214 18.187,15.959 18.183,15.695C18.183,15.68 18.182,15.665 18.181,15.65L18.266,15.73C18.458,15.911 18.569,16.162 18.574,16.426C18.578,16.69 18.475,16.945 18.288,17.132C18.075,17.344 17.842,17.577 17.628,17.792C17.431,17.988 17.163,18.097 16.886,18.092C16.608,18.088 16.344,17.971 16.153,17.769L12.017,13.366L7.853,17.799C7.67,17.993 7.416,18.106 7.149,18.11C6.882,18.114 6.625,18.01 6.436,17.821C6.227,17.612 5.998,17.383 5.787,17.172C5.615,17 5.51,16.773 5.489,16.533ZM17.335,6.097C17.355,6.113 17.374,6.131 17.392,6.15C17.408,6.165 17.423,6.18 17.438,6.196C17.816,6.573 17.826,7.183 17.46,7.572L13.948,11.31L13.696,11.073C13.519,10.907 13.511,10.629 13.677,10.453C14.557,9.516 17.069,6.841 17.069,6.841C17.265,6.633 17.353,6.362 17.335,6.097Z"
                  style="fill:rgb(209,0,42);"/>
            <path d="M7.385,5.848L7.432,5.85L7.478,5.855L7.524,5.862L7.57,5.871L7.616,5.882L7.661,5.896L7.705,5.911L7.749,5.929L7.792,5.949L7.834,5.972L7.876,5.996L7.916,6.023L7.956,6.051L7.994,6.082L8.031,6.115L12.017,9.86L15.99,6.128L16.028,6.094L16.067,6.062L16.108,6.033L16.149,6.006L16.191,5.981L16.234,5.958L16.278,5.938L16.323,5.92L16.368,5.904L16.414,5.89L16.46,5.879L16.507,5.869L16.554,5.862L16.601,5.858L16.648,5.855L16.696,5.855L16.743,5.857L16.79,5.861L16.837,5.867L16.884,5.875L16.931,5.886L16.977,5.899L17.022,5.914L17.067,5.931L17.111,5.951L17.154,5.973L17.196,5.997L17.238,6.023L17.278,6.051L17.317,6.082L17.356,6.115L17.392,6.15L17.438,6.196L17.473,6.232L17.505,6.269L17.535,6.308L17.563,6.347L17.589,6.388L17.612,6.43L17.633,6.472L17.653,6.515L17.67,6.559L17.684,6.604L17.697,6.649L17.708,6.695L17.716,6.74L17.722,6.787L17.726,6.833L17.728,6.88L17.728,6.926L17.725,6.973L17.72,7.019L17.713,7.065L17.704,7.111L17.693,7.156L17.68,7.201L17.664,7.246L17.646,7.29L17.626,7.333L17.604,7.375L17.58,7.417L17.553,7.457L17.524,7.497L17.493,7.535L17.46,7.572L13.767,11.503L18.266,15.73L18.301,15.764L18.334,15.801L18.365,15.839L18.395,15.878L18.422,15.918L18.447,15.96L18.47,16.003L18.49,16.047L18.509,16.092L18.525,16.137L18.539,16.184L18.551,16.231L18.56,16.279L18.567,16.328L18.572,16.377L18.574,16.426L18.573,16.475L18.57,16.525L18.565,16.573L18.557,16.622L18.547,16.669L18.534,16.716L18.519,16.762L18.502,16.808L18.483,16.852L18.461,16.896L18.438,16.938L18.412,16.98L18.384,17.02L18.354,17.059L18.322,17.096L18.288,17.132L17.628,17.792L17.59,17.828L17.551,17.861L17.51,17.893L17.468,17.922L17.424,17.949L17.38,17.974L17.334,17.997L17.287,18.017L17.239,18.035L17.191,18.051L17.141,18.064L17.091,18.075L17.04,18.083L16.989,18.089L16.938,18.092L16.886,18.092L16.834,18.09L16.782,18.086L16.731,18.078L16.681,18.068L16.631,18.056L16.582,18.041L16.534,18.024L16.487,18.005L16.441,17.983L16.396,17.959L16.352,17.933L16.309,17.904L16.268,17.873L16.228,17.841L16.19,17.806L16.153,17.769L12.017,13.366L7.853,17.799L7.818,17.834L7.781,17.868L7.743,17.899L7.704,17.929L7.663,17.956L7.62,17.982L7.577,18.005L7.533,18.026L7.487,18.044L7.441,18.061L7.394,18.075L7.346,18.087L7.298,18.096L7.249,18.103L7.199,18.108L7.149,18.11L7.099,18.109L7.05,18.106L7.001,18.101L6.952,18.093L6.904,18.083L6.856,18.07L6.809,18.055L6.763,18.038L6.718,18.018L6.674,17.996L6.631,17.972L6.59,17.946L6.549,17.918L6.51,17.888L6.472,17.855L6.436,17.821L5.787,17.172L5.751,17.134L5.717,17.094L5.685,17.053L5.656,17.011L5.629,16.968L5.604,16.923L5.581,16.877L5.56,16.83L5.542,16.782L5.527,16.733L5.513,16.683L5.503,16.633L5.494,16.582L5.489,16.53L5.486,16.479L5.485,16.426L5.487,16.374L5.492,16.323L5.499,16.271L5.509,16.221L5.521,16.171L5.536,16.122L5.553,16.073L5.573,16.026L5.595,15.979L5.619,15.934L5.645,15.89L5.674,15.847L5.705,15.806L5.738,15.766L5.773,15.728L5.81,15.691L10.268,11.503L6.587,7.585L6.553,7.547L6.522,7.508L6.492,7.468L6.465,7.427L6.44,7.384L6.418,7.341L6.397,7.297L6.379,7.253L6.363,7.207L6.349,7.162L6.338,7.115L6.329,7.069L6.322,7.022L6.317,6.974L6.314,6.927L6.314,6.88L6.316,6.832L6.32,6.785L6.326,6.738L6.335,6.691L6.345,6.645L6.358,6.599L6.373,6.554L6.391,6.509L6.41,6.465L6.432,6.421L6.456,6.379L6.482,6.338L6.511,6.297L6.541,6.258L6.574,6.22L6.609,6.183L6.655,6.137L6.691,6.103L6.728,6.071L6.767,6.04L6.807,6.013L6.847,5.987L6.889,5.963L6.931,5.942L6.975,5.923L7.019,5.906L7.063,5.891L7.108,5.878L7.154,5.868L7.2,5.859L7.246,5.853L7.292,5.849L7.339,5.847L7.385,5.848ZM7.318,6.265L7.291,6.268L7.265,6.271L7.238,6.276L7.212,6.282L7.186,6.289L7.16,6.298L7.134,6.308L7.11,6.319L7.085,6.331L7.061,6.345L7.038,6.359L7.015,6.376L6.993,6.393L6.971,6.412L6.946,6.435L6.907,6.474L6.883,6.5L6.864,6.522L6.846,6.545L6.829,6.569L6.814,6.593L6.8,6.618L6.787,6.643L6.776,6.669L6.766,6.695L6.757,6.721L6.749,6.748L6.743,6.775L6.738,6.803L6.734,6.831L6.732,6.858L6.731,6.886L6.731,6.914L6.732,6.942L6.735,6.97L6.739,6.997L6.745,7.025L6.752,7.052L6.76,7.079L6.769,7.105L6.779,7.131L6.791,7.157L6.805,7.182L6.819,7.207L6.835,7.231L6.852,7.254L6.871,7.277L6.894,7.303L10.572,11.218L10.6,11.251L10.624,11.288L10.645,11.326L10.661,11.366L10.674,11.408L10.681,11.451L10.684,11.495L10.683,11.538L10.677,11.581L10.667,11.624L10.652,11.665L10.633,11.704L10.61,11.741L10.583,11.776L10.553,11.807L6.099,15.991L6.073,16.017L6.052,16.04L6.033,16.063L6.014,16.088L5.997,16.113L5.982,16.14L5.967,16.167L5.954,16.194L5.942,16.223L5.932,16.251L5.923,16.281L5.916,16.31L5.91,16.341L5.906,16.371L5.903,16.402L5.902,16.433L5.902,16.464L5.904,16.495L5.907,16.526L5.912,16.556L5.919,16.586L5.927,16.615L5.936,16.645L5.947,16.673L5.959,16.701L5.972,16.729L5.987,16.755L6.004,16.781L6.021,16.806L6.04,16.831L6.06,16.854L6.085,16.881L6.727,17.523L6.752,17.546L6.774,17.565L6.796,17.582L6.82,17.599L6.844,17.614L6.869,17.628L6.894,17.64L6.92,17.651L6.946,17.661L6.973,17.67L7.001,17.677L7.029,17.683L7.057,17.688L7.085,17.691L7.114,17.693L7.143,17.693L7.172,17.692L7.2,17.689L7.229,17.685L7.257,17.68L7.284,17.673L7.311,17.665L7.338,17.655L7.364,17.644L7.39,17.632L7.415,17.619L7.439,17.604L7.463,17.589L7.486,17.572L7.508,17.553L7.529,17.534L7.553,17.51L11.714,13.081L11.746,13.049L11.782,13.022L11.821,12.998L11.862,12.979L11.905,12.964L11.95,12.955L11.995,12.95L12.04,12.95L12.085,12.955L12.129,12.964L12.172,12.979L12.213,12.998L12.252,13.022L12.288,13.049L12.321,13.081L16.454,17.48L16.479,17.505L16.502,17.526L16.525,17.546L16.55,17.564L16.575,17.581L16.601,17.596L16.628,17.611L16.655,17.624L16.683,17.635L16.712,17.645L16.741,17.654L16.771,17.661L16.8,17.667L16.831,17.672L16.861,17.674L16.892,17.676L16.923,17.675L16.954,17.673L16.984,17.67L17.014,17.665L17.044,17.659L17.073,17.651L17.102,17.642L17.131,17.631L17.158,17.619L17.186,17.606L17.212,17.591L17.238,17.575L17.263,17.557L17.287,17.538L17.31,17.518L17.337,17.493L17.989,16.841L18.013,16.816L18.031,16.795L18.048,16.773L18.064,16.75L18.079,16.726L18.092,16.702L18.105,16.677L18.116,16.651L18.126,16.625L18.134,16.599L18.141,16.572L18.147,16.545L18.152,16.517L18.155,16.489L18.157,16.461L18.157,16.433L18.156,16.404L18.153,16.376L18.149,16.348L18.144,16.321L18.137,16.294L18.129,16.267L18.12,16.241L18.109,16.215L18.097,16.19L18.084,16.165L18.07,16.142L18.054,16.118L18.037,16.096L18.02,16.074L18.001,16.053L17.977,16.03L13.482,11.807L13.451,11.776L13.425,11.741L13.402,11.704L13.383,11.665L13.368,11.624L13.358,11.581L13.352,11.538L13.35,11.495L13.353,11.451L13.361,11.408L13.373,11.366L13.39,11.326L13.41,11.288L13.435,11.251L13.463,11.218L17.153,7.291L17.176,7.265L17.194,7.243L17.21,7.22L17.226,7.196L17.24,7.173L17.252,7.148L17.264,7.123L17.274,7.098L17.283,7.073L17.291,7.047L17.298,7.02L17.303,6.994L17.307,6.967L17.31,6.94L17.311,6.913L17.311,6.886L17.31,6.859L17.308,6.832L17.304,6.805L17.299,6.779L17.293,6.752L17.286,6.726L17.277,6.701L17.268,6.675L17.257,6.65L17.244,6.626L17.231,6.602L17.216,6.578L17.2,6.556L17.183,6.533L17.164,6.512L17.14,6.487L17.101,6.448L17.076,6.424L17.053,6.404L17.03,6.386L17.007,6.37L16.983,6.354L16.958,6.34L16.933,6.328L16.907,6.316L16.881,6.306L16.854,6.297L16.827,6.29L16.8,6.284L16.773,6.279L16.745,6.275L16.717,6.272L16.689,6.271L16.661,6.272L16.634,6.273L16.606,6.276L16.578,6.28L16.551,6.286L16.524,6.292L16.497,6.3L16.47,6.31L16.444,6.32L16.419,6.332L16.394,6.345L16.369,6.36L16.345,6.376L16.321,6.393L16.298,6.411L16.272,6.435L12.303,10.164L12.268,10.193L12.231,10.218L12.191,10.239L12.15,10.255L12.106,10.267L12.062,10.274L12.017,10.277L11.973,10.274L11.928,10.267L11.885,10.255L11.843,10.239L11.804,10.218L11.766,10.193L11.732,10.164L7.75,6.423L7.724,6.4L7.702,6.382L7.679,6.365L7.656,6.35L7.632,6.336L7.607,6.323L7.583,6.311L7.557,6.301L7.532,6.292L7.506,6.284L7.48,6.278L7.453,6.273L7.426,6.269L7.399,6.266L7.372,6.264L7.345,6.264L7.318,6.265Z"/>
        </g>
    </g>
</svg>
