<svg width="100%" height="100%" viewBox="0 0 24 24" version="1.1" xmlns="http://www.w3.org/2000/svg"
     style="fill-rule:evenodd;clip-rule:evenodd;stroke-linecap:round;stroke-linejoin:round;stroke-miterlimit:1;">
    <g id="ic_equip">
        <rect id="bg" x="0" y="0" width="24" height="24" style="fill:rgb(235,235,235);fill-opacity:0;"/>
        <g>
            <path d="M16.411,19.937C16.453,19.78 16.36,19.619 16.203,19.577L6.076,16.863C5.92,16.821 5.758,16.915 5.716,17.071L5.713,17.083C5.671,17.24 5.764,17.401 5.921,17.443L16.048,20.156C16.205,20.198 16.366,20.105 16.408,19.949L16.411,19.937Z"
                  style="fill:rgb(0,222,179);"/>
            <path d="M16.299,19.752C16.341,19.595 16.248,19.434 16.091,19.392L5.964,16.678C5.807,16.636 5.646,16.73 5.604,16.886L5.601,16.898C5.559,17.055 5.652,17.216 5.809,17.258L15.936,19.972C16.092,20.014 16.254,19.92 16.296,19.764L16.299,19.752Z"/>
            <g id="g3">
                <path d="M6.118,15.978C6.118,15.978 5.315,11.811 5.783,9.312C6.183,6.249 9.728,4.471 12.443,4.561C15.266,4.655 18.31,6.574 18.974,10.131C18.966,12.192 18.985,14.131 18.959,15.755C18.545,17.658 17.182,19.103 17.182,19.103L6.118,15.978Z"
                      style="fill:rgb(0,222,179);"/>
                <path d="M17.432,6.701C18.176,7.561 18.73,8.638 18.974,9.925C18.966,12.033 18.986,14.017 18.959,15.678C18.528,17.625 17.11,19.103 17.11,19.103L6.127,16C6.127,16 6.093,15.828 6.043,15.532C6.043,15.532 14.411,17.897 16.296,18.43C16.528,18.496 16.777,18.421 16.934,18.239C17.361,17.708 18.204,16.535 18.519,15.111C18.546,13.45 18.526,11.466 18.534,9.358C18.34,8.34 17.953,7.453 17.432,6.701Z"
                      style="fill:rgb(0,171,138);"/>
                <path d="M5.603,15.906C5.603,15.906 4.767,11.644 5.254,9.087C5.67,5.954 9.357,4.135 12.182,4.227C15.117,4.323 18.284,6.286 18.974,9.925C18.966,12.033 18.986,14.017 18.959,15.678C18.528,17.625 17.11,19.103 17.11,19.103L5.603,15.906Z"
                      style="fill:none;stroke:black;stroke-width:0.42px;"/>
                <path d="M16.996,7.563C17.131,7.394 17.104,7.147 16.934,7.011C16.934,7.011 16.387,6.437 16.099,6.207C15.822,5.986 15.206,5.631 15.206,5.631C15.037,5.496 14.79,5.524 14.654,5.693C14.519,5.863 14.547,6.11 14.716,6.245C14.716,6.245 15.354,6.617 15.642,6.847C15.93,7.077 16.444,7.625 16.444,7.625C16.614,7.76 16.861,7.732 16.996,7.563Z"
                      style="fill:white;"/>
                <ellipse cx="13.85" cy="5.419" rx="0.46" ry="0.46" style="fill:white;"/>
            </g>
            <g id="g2">
                <path d="M18.972,11.099C18.972,11.099 14.689,10.327 11.821,9.81C11.327,9.721 10.825,9.913 10.517,10.309C10.208,10.704 10.145,11.238 10.352,11.695C10.962,13.043 11.609,14.471 11.609,14.471L18.974,14.711L18.972,11.099Z"
                      style="fill:rgb(105,105,105);stroke:black;stroke-width:0.42px;"/>
                <path d="M11.767,12.747C11.908,12.682 11.97,12.516 11.905,12.375L11.484,11.457C11.419,11.316 11.253,11.254 11.112,11.319C10.972,11.383 10.91,11.55 10.975,11.69L11.396,12.609C11.461,12.749 11.627,12.811 11.767,12.747Z"
                      style="fill:white;"/>
            </g>
            <g id="g1">
                <ellipse cx="8.17" cy="12.461" rx="0.877" ry="0.891" style="fill:rgb(235,235,235);"/>
                <path d="M8.742,11.785C8.929,11.949 9.047,12.191 9.047,12.461C9.047,12.952 8.654,13.352 8.17,13.352C7.827,13.352 7.529,13.15 7.385,12.858C7.539,12.992 7.739,13.073 7.957,13.073C8.441,13.073 8.834,12.674 8.834,12.182C8.834,12.04 8.801,11.905 8.742,11.785Z"
                      style="fill:rgb(179,179,179);"/>
                <path d="M8.074,11.042L8.107,11.044L8.14,11.046L8.173,11.048L8.206,11.052L8.239,11.057L8.271,11.062L8.303,11.068L8.335,11.075L8.366,11.083L8.397,11.091L8.428,11.1L8.458,11.11L8.488,11.12L8.518,11.131L8.548,11.143L8.577,11.156L8.606,11.169L8.634,11.183L8.662,11.198L8.689,11.213L8.716,11.229L8.743,11.245L8.769,11.263L8.82,11.299L8.87,11.337L8.917,11.378L8.962,11.42L9.006,11.465L9.047,11.512L9.085,11.561L9.104,11.586L9.122,11.612L9.139,11.638L9.156,11.664L9.172,11.691L9.187,11.718L9.202,11.746L9.216,11.774L9.229,11.802L9.242,11.831L9.254,11.86L9.266,11.89L9.276,11.92L9.286,11.95L9.295,11.98L9.304,12.011L9.311,12.042L9.318,12.074L9.324,12.105L9.33,12.137L9.334,12.169L9.338,12.202L9.341,12.234L9.343,12.267L9.344,12.3L9.345,12.334L9.344,12.367L9.343,12.4L9.341,12.433L9.338,12.466L9.334,12.498L9.33,12.53L9.324,12.562L9.318,12.594L9.311,12.625L9.304,12.657L9.295,12.687L9.286,12.718L9.276,12.748L9.266,12.778L9.254,12.807L9.242,12.836L9.229,12.865L9.216,12.894L9.202,12.922L9.187,12.949L9.172,12.977L9.156,13.004L9.139,13.03L9.122,13.056L9.104,13.081L9.085,13.107L9.047,13.155L9.006,13.202L8.962,13.247L8.917,13.29L8.87,13.331L8.82,13.369L8.769,13.405L8.743,13.422L8.716,13.439L8.689,13.454L8.662,13.47L8.634,13.484L8.606,13.498L8.577,13.512L8.548,13.524L8.518,13.536L8.488,13.547L8.458,13.558L8.428,13.568L8.397,13.577L8.366,13.585L8.335,13.593L8.303,13.6L8.271,13.606L8.239,13.611L8.206,13.615L8.173,13.619L8.14,13.622L8.107,13.624L8.074,13.625L8.04,13.626L8.006,13.625L7.973,13.624L7.94,13.622L7.907,13.619L7.874,13.615L7.841,13.611L7.809,13.606L7.777,13.6L7.746,13.593L7.714,13.585L7.683,13.577L7.652,13.568L7.622,13.558L7.592,13.547L7.562,13.536L7.532,13.524L7.503,13.512L7.475,13.498L7.446,13.484L7.418,13.47L7.391,13.454L7.364,13.439L7.337,13.422L7.311,13.405L7.26,13.369L7.21,13.331L7.163,13.29L7.118,13.247L7.074,13.202L7.033,13.155L6.995,13.107L6.976,13.081L6.958,13.056L6.941,13.03L6.924,13.004L6.908,12.977L6.893,12.949L6.878,12.922L6.864,12.894L6.851,12.865L6.838,12.836L6.826,12.807L6.815,12.778L6.804,12.748L6.794,12.718L6.785,12.687L6.776,12.657L6.769,12.625L6.762,12.594L6.756,12.562L6.75,12.53L6.746,12.498L6.742,12.466L6.739,12.433L6.737,12.4L6.736,12.367L6.735,12.334L6.736,12.3L6.737,12.267L6.739,12.234L6.742,12.202L6.746,12.169L6.75,12.137L6.756,12.105L6.762,12.074L6.769,12.042L6.776,12.011L6.785,11.98L6.794,11.95L6.804,11.92L6.815,11.89L6.826,11.86L6.838,11.831L6.851,11.802L6.864,11.774L6.878,11.746L6.893,11.718L6.908,11.691L6.924,11.664L6.941,11.638L6.958,11.612L6.976,11.586L6.995,11.561L7.033,11.512L7.074,11.465L7.118,11.42L7.163,11.378L7.21,11.337L7.26,11.299L7.311,11.263L7.337,11.245L7.364,11.229L7.391,11.213L7.418,11.198L7.446,11.183L7.475,11.169L7.503,11.156L7.532,11.143L7.562,11.131L7.592,11.12L7.622,11.11L7.652,11.1L7.683,11.091L7.714,11.083L7.746,11.075L7.777,11.068L7.809,11.062L7.841,11.057L7.874,11.052L7.907,11.048L7.94,11.046L7.973,11.044L8.006,11.042L8.04,11.042L8.074,11.042ZM8.017,11.459L7.994,11.46L7.971,11.461L7.948,11.463L7.926,11.466L7.904,11.469L7.882,11.472L7.86,11.476L7.839,11.481L7.817,11.486L7.796,11.492L7.775,11.498L7.754,11.505L7.734,11.512L7.713,11.52L7.693,11.528L7.674,11.536L7.654,11.545L7.635,11.555L7.616,11.565L7.597,11.575L7.579,11.586L7.56,11.597L7.545,11.608L7.508,11.634L7.474,11.66L7.442,11.687L7.411,11.717L7.382,11.747L7.354,11.779L7.326,11.814L7.315,11.829L7.302,11.847L7.291,11.864L7.279,11.882L7.269,11.9L7.258,11.919L7.248,11.937L7.239,11.956L7.23,11.975L7.221,11.995L7.213,12.015L7.205,12.034L7.198,12.054L7.192,12.075L7.185,12.095L7.18,12.116L7.175,12.137L7.17,12.158L7.166,12.179L7.162,12.201L7.159,12.222L7.157,12.244L7.155,12.266L7.153,12.289L7.152,12.311L7.152,12.334L7.152,12.356L7.153,12.379L7.155,12.401L7.157,12.423L7.159,12.445L7.162,12.467L7.166,12.488L7.17,12.51L7.175,12.531L7.18,12.552L7.185,12.572L7.192,12.593L7.198,12.613L7.205,12.633L7.213,12.653L7.221,12.673L7.23,12.692L7.239,12.711L7.248,12.73L7.258,12.749L7.269,12.767L7.279,12.786L7.291,12.803L7.302,12.821L7.315,12.838L7.326,12.853L7.354,12.889L7.382,12.92L7.411,12.951L7.442,12.98L7.474,13.008L7.508,13.034L7.545,13.06L7.56,13.07L7.579,13.082L7.597,13.092L7.616,13.103L7.635,13.113L7.654,13.122L7.674,13.131L7.693,13.14L7.713,13.148L7.734,13.156L7.754,13.163L7.775,13.169L7.796,13.176L7.817,13.181L7.839,13.186L7.86,13.191L7.882,13.195L7.904,13.199L7.926,13.202L7.948,13.204L7.971,13.206L7.994,13.208L8.017,13.209L8.04,13.209L8.063,13.209L8.086,13.208L8.109,13.206L8.132,13.204L8.154,13.202L8.176,13.199L8.198,13.195L8.22,13.191L8.242,13.186L8.263,13.181L8.284,13.176L8.305,13.169L8.326,13.163L8.346,13.156L8.367,13.148L8.387,13.14L8.406,13.131L8.426,13.122L8.445,13.113L8.464,13.103L8.483,13.092L8.502,13.082L8.52,13.07L8.535,13.06L8.572,13.034L8.606,13.008L8.638,12.98L8.669,12.951L8.699,12.92L8.727,12.889L8.754,12.853L8.765,12.838L8.778,12.821L8.789,12.803L8.801,12.786L8.812,12.767L8.822,12.749L8.832,12.73L8.841,12.711L8.85,12.692L8.859,12.673L8.867,12.653L8.875,12.633L8.882,12.613L8.889,12.593L8.895,12.572L8.9,12.552L8.906,12.531L8.91,12.51L8.914,12.488L8.918,12.467L8.921,12.445L8.924,12.423L8.926,12.401L8.927,12.379L8.928,12.356L8.928,12.334L8.928,12.311L8.927,12.289L8.926,12.266L8.924,12.244L8.921,12.222L8.918,12.201L8.914,12.179L8.91,12.158L8.906,12.137L8.9,12.116L8.895,12.095L8.889,12.075L8.882,12.054L8.875,12.034L8.867,12.014L8.859,11.995L8.85,11.975L8.841,11.956L8.832,11.937L8.822,11.919L8.812,11.9L8.801,11.882L8.789,11.864L8.778,11.847L8.766,11.829L8.754,11.814L8.727,11.779L8.699,11.747L8.669,11.717L8.638,11.687L8.606,11.66L8.572,11.634L8.535,11.608L8.52,11.597L8.502,11.586L8.483,11.575L8.464,11.565L8.445,11.555L8.426,11.545L8.406,11.536L8.387,11.528L8.367,11.52L8.346,11.512L8.326,11.505L8.305,11.498L8.284,11.492L8.263,11.486L8.242,11.481L8.22,11.476L8.198,11.472L8.176,11.469L8.154,11.466L8.132,11.463L8.109,11.461L8.086,11.46L8.063,11.459L8.04,11.459L8.017,11.459Z"/>
            </g>
        </g>
    </g>
</svg>
