<?xml version="1.0" encoding="UTF-8" standalone="no"?>
<!DOCTYPE svg PUBLIC "-//W3C//DTD SVG 1.1//EN" "http://www.w3.org/Graphics/SVG/1.1/DTD/svg11.dtd">
<svg width="100%" height="100%" viewBox="0 0 24 24" version="1.1" xmlns="http://www.w3.org/2000/svg" xmlns:xlink="http://www.w3.org/1999/xlink" xml:space="preserve" xmlns:serif="http://www.serif.com/" style="fill-rule:evenodd;clip-rule:evenodd;stroke-linejoin:round;stroke-miterlimit:1.41421;">
    <g id="ic_event">
        <rect id="bg" x="0" y="0" width="24" height="24" style="fill:rgb(235,235,235);fill-opacity:0;"/>
        <g id="icon">
            <path d="M18,16.5C18,15.948 17.552,15.5 17,15.5L7,15.5C6.448,15.5 6,15.948 6,16.5L6,19.5C6,20.052 6.448,20.5 7,20.5L17,20.5C17.552,20.5 18,20.052 18,19.5L18,16.5Z" style="fill:white;"/>
            <path d="M17.051,15.501L17.102,15.505L17.152,15.512L17.201,15.52L17.25,15.532L17.297,15.545L17.344,15.561L17.389,15.579L17.433,15.599L17.476,15.621L17.518,15.645L17.559,15.671L17.598,15.699L17.636,15.728L17.672,15.76L17.707,15.793L17.74,15.828L17.772,15.864L17.801,15.902L17.829,15.941L17.855,15.982L17.879,16.024L17.901,16.067L17.921,16.111L17.939,16.156L17.955,16.203L17.968,16.25L17.98,16.299L17.988,16.348L17.995,16.398L17.999,16.449L18,16.5L18,19.5L17.999,19.551L17.995,19.602L17.988,19.652L17.98,19.701L17.968,19.75L17.955,19.797L17.939,19.844L17.921,19.889L17.901,19.933L17.879,19.976L17.855,20.018L17.829,20.059L17.801,20.098L17.772,20.136L17.74,20.172L17.707,20.207L17.672,20.24L17.636,20.272L17.598,20.301L17.559,20.329L17.518,20.355L17.476,20.379L17.433,20.401L17.389,20.421L17.344,20.439L17.297,20.455L17.25,20.468L17.201,20.48L17.152,20.488L17.102,20.495L17.051,20.499L17,20.5L7,20.5L6.949,20.499L6.898,20.495L6.848,20.488L6.799,20.48L6.75,20.468L6.703,20.455L6.656,20.439L6.611,20.421L6.567,20.401L6.524,20.379L6.482,20.355L6.441,20.329L6.402,20.301L6.364,20.272L6.328,20.24L6.293,20.207L6.26,20.172L6.228,20.136L6.199,20.098L6.171,20.059L6.145,20.018L6.121,19.976L6.099,19.933L6.079,19.889L6.061,19.844L6.045,19.797L6.032,19.75L6.02,19.701L6.012,19.652L6.005,19.602L6.001,19.551L6,19.5L6,16.5L6.001,16.449L6.005,16.398L6.012,16.348L6.02,16.299L6.032,16.25L6.045,16.203L6.061,16.156L6.079,16.111L6.099,16.067L6.121,16.024L6.145,15.982L6.171,15.941L6.199,15.902L6.228,15.864L6.26,15.828L6.293,15.793L6.328,15.76L6.364,15.728L6.402,15.699L6.441,15.671L6.482,15.645L6.524,15.621L6.567,15.599L6.611,15.579L6.656,15.561L6.703,15.545L6.75,15.532L6.799,15.52L6.848,15.512L6.898,15.505L6.949,15.501L7,15.5L17,15.5L17.051,15.501ZM7.005,15.917L6.97,15.918L6.94,15.92L6.911,15.924L6.882,15.929L6.854,15.935L6.827,15.943L6.8,15.952L6.773,15.962L6.748,15.974L6.723,15.987L6.698,16.001L6.674,16.016L6.651,16.033L6.629,16.05L6.608,16.068L6.588,16.088L6.568,16.108L6.55,16.129L6.533,16.151L6.516,16.174L6.501,16.198L6.487,16.223L6.474,16.248L6.462,16.273L6.452,16.3L6.443,16.327L6.435,16.354L6.429,16.382L6.424,16.411L6.42,16.44L6.418,16.47L6.417,16.505L6.417,19.495L6.418,19.53L6.42,19.56L6.424,19.589L6.429,19.618L6.435,19.646L6.443,19.673L6.452,19.7L6.462,19.727L6.474,19.752L6.487,19.777L6.501,19.802L6.516,19.826L6.533,19.849L6.55,19.871L6.568,19.892L6.588,19.912L6.608,19.932L6.629,19.95L6.651,19.967L6.674,19.984L6.698,19.999L6.723,20.013L6.748,20.026L6.773,20.038L6.8,20.048L6.827,20.057L6.854,20.065L6.882,20.071L6.911,20.076L6.94,20.08L6.97,20.082L7.005,20.083L16.995,20.083L17.03,20.082L17.06,20.08L17.089,20.076L17.118,20.071L17.146,20.065L17.173,20.057L17.2,20.048L17.227,20.038L17.252,20.026L17.277,20.013L17.302,19.999L17.326,19.984L17.349,19.967L17.371,19.95L17.392,19.932L17.412,19.912L17.432,19.892L17.45,19.871L17.467,19.849L17.484,19.826L17.499,19.802L17.513,19.777L17.526,19.752L17.538,19.727L17.548,19.7L17.557,19.673L17.565,19.646L17.571,19.618L17.576,19.589L17.58,19.56L17.582,19.53L17.583,19.495L17.583,16.505L17.582,16.47L17.58,16.44L17.576,16.411L17.571,16.382L17.565,16.354L17.557,16.327L17.548,16.3L17.538,16.273L17.526,16.248L17.513,16.223L17.499,16.198L17.484,16.174L17.467,16.151L17.45,16.129L17.432,16.108L17.412,16.088L17.392,16.068L17.371,16.05L17.349,16.033L17.326,16.016L17.302,16.001L17.277,15.987L17.252,15.974L17.227,15.962L17.2,15.952L17.173,15.943L17.146,15.935L17.118,15.929L17.089,15.924L17.06,15.92L17.03,15.918L16.995,15.917L7.005,15.917Z"/>
            <path d="M18,11C18,10.448 17.552,10 17,10L7,10C6.448,10 6,10.448 6,11L6,14C6,14.552 6.448,15 7,15L17,15C17.552,15 18,14.552 18,14L18,11Z" style="fill:white;"/>
            <path d="M17.051,10.001L17.102,10.005L17.152,10.012L17.201,10.02L17.25,10.032L17.297,10.045L17.344,10.061L17.389,10.079L17.433,10.099L17.476,10.121L17.518,10.145L17.559,10.171L17.598,10.199L17.636,10.228L17.672,10.26L17.707,10.293L17.74,10.328L17.772,10.364L17.801,10.402L17.829,10.441L17.855,10.482L17.879,10.524L17.901,10.567L17.921,10.611L17.939,10.656L17.955,10.703L17.968,10.75L17.98,10.799L17.988,10.848L17.995,10.898L17.999,10.949L18,11L18,14L17.999,14.051L17.995,14.102L17.988,14.152L17.98,14.201L17.968,14.25L17.955,14.297L17.939,14.344L17.921,14.389L17.901,14.433L17.879,14.476L17.855,14.518L17.829,14.559L17.801,14.598L17.772,14.636L17.74,14.672L17.707,14.707L17.672,14.74L17.636,14.772L17.598,14.801L17.559,14.829L17.518,14.855L17.476,14.879L17.433,14.901L17.389,14.921L17.344,14.939L17.297,14.955L17.25,14.968L17.201,14.98L17.152,14.988L17.102,14.995L17.051,14.999L17,15L7,15L6.949,14.999L6.898,14.995L6.848,14.988L6.799,14.98L6.75,14.968L6.703,14.955L6.656,14.939L6.611,14.921L6.567,14.901L6.524,14.879L6.482,14.855L6.441,14.829L6.402,14.801L6.364,14.772L6.328,14.74L6.293,14.707L6.26,14.672L6.228,14.636L6.199,14.598L6.171,14.559L6.145,14.518L6.121,14.476L6.099,14.433L6.079,14.389L6.061,14.344L6.045,14.297L6.032,14.25L6.02,14.201L6.012,14.152L6.005,14.102L6.001,14.051L6,14L6,11L6.001,10.949L6.005,10.898L6.012,10.848L6.02,10.799L6.032,10.75L6.045,10.703L6.061,10.656L6.079,10.611L6.099,10.567L6.121,10.524L6.145,10.482L6.171,10.441L6.199,10.402L6.228,10.364L6.26,10.328L6.293,10.293L6.328,10.26L6.364,10.228L6.402,10.199L6.441,10.171L6.482,10.145L6.524,10.121L6.567,10.099L6.611,10.079L6.656,10.061L6.703,10.045L6.75,10.032L6.799,10.02L6.848,10.012L6.898,10.005L6.949,10.001L7,10L17,10L17.051,10.001ZM7.005,10.417L6.97,10.418L6.94,10.42L6.911,10.424L6.882,10.429L6.854,10.435L6.827,10.443L6.8,10.452L6.773,10.462L6.748,10.474L6.723,10.487L6.698,10.501L6.674,10.516L6.651,10.533L6.629,10.55L6.608,10.568L6.588,10.588L6.568,10.608L6.55,10.629L6.533,10.651L6.516,10.674L6.501,10.698L6.487,10.723L6.474,10.748L6.462,10.773L6.452,10.8L6.443,10.827L6.435,10.854L6.429,10.882L6.424,10.911L6.42,10.94L6.418,10.97L6.417,11.005L6.417,13.995L6.418,14.03L6.42,14.06L6.424,14.089L6.429,14.118L6.435,14.146L6.443,14.173L6.452,14.2L6.462,14.227L6.474,14.252L6.487,14.277L6.501,14.302L6.516,14.326L6.533,14.349L6.55,14.371L6.568,14.392L6.588,14.412L6.608,14.432L6.629,14.45L6.651,14.467L6.674,14.484L6.698,14.499L6.723,14.513L6.748,14.526L6.773,14.538L6.8,14.548L6.827,14.557L6.854,14.565L6.882,14.571L6.911,14.576L6.94,14.58L6.97,14.582L7.005,14.583L16.995,14.583L17.03,14.582L17.06,14.58L17.089,14.576L17.118,14.571L17.146,14.565L17.173,14.557L17.2,14.548L17.227,14.538L17.252,14.526L17.277,14.513L17.302,14.499L17.326,14.484L17.349,14.467L17.371,14.45L17.392,14.432L17.412,14.412L17.432,14.392L17.45,14.371L17.467,14.349L17.484,14.326L17.499,14.302L17.513,14.277L17.526,14.252L17.538,14.227L17.548,14.2L17.557,14.173L17.565,14.146L17.571,14.118L17.576,14.089L17.58,14.06L17.582,14.03L17.583,13.995L17.583,11.005L17.582,10.97L17.58,10.94L17.576,10.911L17.571,10.882L17.565,10.854L17.557,10.827L17.548,10.8L17.538,10.773L17.526,10.748L17.513,10.723L17.499,10.698L17.484,10.674L17.467,10.651L17.45,10.629L17.432,10.608L17.412,10.588L17.392,10.568L17.371,10.55L17.349,10.533L17.326,10.516L17.302,10.501L17.277,10.487L17.252,10.474L17.227,10.462L17.2,10.452L17.173,10.443L17.146,10.435L17.118,10.429L17.089,10.424L17.06,10.42L17.03,10.418L16.995,10.417L7.005,10.417Z"/>
            <path d="M19,4.738C19,4.081 18.467,3.547 17.809,3.547L6.827,3.547C6.17,3.547 5.636,4.081 5.636,4.738L5.636,8.309C5.636,8.967 6.17,9.5 6.827,9.5L17.809,9.5C18.467,9.5 19,8.967 19,8.309L19,4.738Z" style="fill:rgb(47,105,255);"/>
            <path d="M18.046,3.571C18.59,3.681 19,4.162 19,4.738L19,8.309C19,8.967 18.467,9.5 17.809,9.5L6.827,9.5C6.322,9.5 5.89,9.185 5.717,8.742C5.794,8.757 5.873,8.765 5.954,8.765L16.937,8.765C17.594,8.765 18.127,8.232 18.127,7.575L18.127,4.003C18.127,3.851 18.099,3.705 18.046,3.571Z" style="fill:rgb(0,58,208);"/>
            <path d="M17.831,3.5L17.862,3.502L17.892,3.504L17.923,3.506L17.953,3.51L17.983,3.514L18.012,3.519L18.042,3.524L18.1,3.538L18.157,3.554L18.212,3.573L18.267,3.594L18.32,3.618L18.372,3.645L18.422,3.674L18.471,3.705L18.518,3.739L18.563,3.774L18.607,3.812L18.648,3.852L18.688,3.893L18.726,3.937L18.761,3.982L18.795,4.029L18.826,4.078L18.855,4.128L18.882,4.18L18.906,4.233L18.927,4.288L18.946,4.343L18.962,4.4L18.976,4.458L18.981,4.488L18.986,4.517L18.99,4.547L18.994,4.577L18.996,4.608L18.998,4.638L19,4.669L19,4.7L19,8.3L19,8.331L18.998,8.362L18.996,8.392L18.994,8.423L18.99,8.453L18.986,8.483L18.981,8.512L18.976,8.542L18.962,8.6L18.946,8.657L18.927,8.712L18.906,8.767L18.882,8.82L18.855,8.872L18.826,8.922L18.795,8.971L18.761,9.018L18.726,9.063L18.688,9.107L18.648,9.148L18.607,9.188L18.563,9.226L18.518,9.261L18.471,9.295L18.422,9.326L18.372,9.355L18.32,9.382L18.267,9.406L18.212,9.427L18.157,9.446L18.1,9.462L18.042,9.476L18.012,9.481L17.983,9.486L17.953,9.49L17.923,9.494L17.892,9.496L17.862,9.498L17.831,9.5L17.8,9.5L6.2,9.5L6.169,9.5L6.138,9.498L6.108,9.496L6.077,9.494L6.047,9.49L6.017,9.486L5.988,9.481L5.958,9.476L5.9,9.462L5.843,9.446L5.788,9.427L5.733,9.406L5.68,9.382L5.628,9.355L5.578,9.326L5.529,9.295L5.482,9.261L5.437,9.226L5.393,9.188L5.352,9.148L5.312,9.107L5.274,9.063L5.239,9.018L5.205,8.971L5.174,8.922L5.145,8.872L5.118,8.82L5.094,8.767L5.073,8.712L5.054,8.657L5.038,8.6L5.024,8.542L5.019,8.512L5.014,8.483L5.01,8.453L5.006,8.423L5.004,8.392L5.002,8.362L5,8.331L5,8.3L5,4.7L5,4.669L5.002,4.638L5.004,4.608L5.006,4.577L5.01,4.547L5.014,4.517L5.019,4.488L5.024,4.458L5.038,4.4L5.054,4.343L5.073,4.288L5.094,4.233L5.118,4.18L5.145,4.128L5.174,4.078L5.205,4.029L5.239,3.982L5.274,3.937L5.312,3.893L5.352,3.852L5.393,3.812L5.437,3.774L5.482,3.739L5.529,3.705L5.578,3.674L5.628,3.645L5.68,3.618L5.733,3.594L5.788,3.573L5.843,3.554L5.9,3.538L5.958,3.524L5.988,3.519L6.017,3.514L6.047,3.51L6.077,3.506L6.108,3.504L6.138,3.502L6.169,3.5L6.2,3.5L17.8,3.5L17.831,3.5ZM6.203,3.917L6.18,3.917L6.159,3.918L6.139,3.919L6.12,3.921L6.1,3.923L6.08,3.926L6.061,3.929L6.044,3.932L6.004,3.941L5.967,3.952L5.931,3.964L5.896,3.978L5.861,3.994L5.827,4.011L5.794,4.03L5.763,4.05L5.732,4.072L5.702,4.096L5.674,4.12L5.646,4.146L5.62,4.174L5.596,4.202L5.572,4.232L5.55,4.263L5.53,4.294L5.511,4.327L5.494,4.361L5.478,4.396L5.464,4.431L5.452,4.467L5.441,4.504L5.432,4.544L5.429,4.561L5.426,4.58L5.423,4.6L5.421,4.62L5.419,4.639L5.418,4.659L5.417,4.68L5.417,4.703L5.417,8.297L5.417,8.32L5.418,8.341L5.419,8.361L5.421,8.38L5.423,8.4L5.426,8.42L5.429,8.439L5.432,8.456L5.441,8.496L5.452,8.533L5.464,8.569L5.478,8.604L5.494,8.639L5.511,8.673L5.53,8.706L5.55,8.737L5.572,8.768L5.596,8.798L5.62,8.826L5.646,8.854L5.674,8.88L5.702,8.904L5.732,8.928L5.763,8.95L5.794,8.97L5.827,8.989L5.861,9.006L5.896,9.022L5.931,9.036L5.967,9.048L6.004,9.059L6.044,9.068L6.061,9.071L6.08,9.074L6.1,9.077L6.12,9.079L6.139,9.081L6.159,9.082L6.18,9.083L6.203,9.083L17.797,9.083L17.82,9.083L17.841,9.082L17.861,9.081L17.88,9.079L17.9,9.077L17.92,9.074L17.939,9.071L17.956,9.068L17.996,9.059L18.033,9.048L18.069,9.036L18.104,9.022L18.139,9.006L18.173,8.989L18.206,8.97L18.237,8.95L18.268,8.928L18.298,8.904L18.326,8.88L18.354,8.854L18.38,8.826L18.404,8.798L18.428,8.768L18.45,8.737L18.47,8.706L18.489,8.673L18.506,8.639L18.522,8.604L18.536,8.569L18.548,8.533L18.559,8.496L18.568,8.456L18.571,8.439L18.574,8.42L18.577,8.4L18.579,8.38L18.581,8.361L18.582,8.341L18.583,8.32L18.583,8.297L18.583,4.703L18.583,4.68L18.582,4.659L18.581,4.639L18.579,4.62L18.577,4.6L18.574,4.58L18.571,4.561L18.568,4.544L18.559,4.504L18.548,4.467L18.536,4.431L18.522,4.396L18.506,4.361L18.489,4.327L18.47,4.294L18.45,4.263L18.428,4.232L18.404,4.202L18.38,4.174L18.354,4.146L18.326,4.12L18.298,4.096L18.268,4.072L18.237,4.05L18.206,4.03L18.173,4.011L18.139,3.994L18.104,3.978L18.069,3.964L18.033,3.952L17.996,3.941L17.956,3.932L17.939,3.929L17.92,3.926L17.9,3.923L17.88,3.921L17.861,3.919L17.841,3.918L17.82,3.917L17.797,3.917L6.203,3.917Z"/>
            <circle cx="7" cy="6.5" r="1" style="fill:white;"/>
            <path d="M7.051,5.501L7.102,5.505L7.152,5.512L7.201,5.52L7.25,5.532L7.297,5.545L7.344,5.561L7.389,5.579L7.433,5.599L7.476,5.621L7.518,5.645L7.559,5.671L7.598,5.699L7.636,5.728L7.672,5.76L7.707,5.793L7.74,5.828L7.772,5.864L7.801,5.902L7.829,5.941L7.855,5.982L7.879,6.024L7.901,6.067L7.921,6.111L7.939,6.156L7.955,6.203L7.968,6.25L7.98,6.299L7.988,6.348L7.995,6.398L7.999,6.449L8,6.5L7.999,6.551L7.995,6.602L7.988,6.652L7.98,6.701L7.968,6.75L7.955,6.797L7.939,6.844L7.921,6.889L7.901,6.933L7.879,6.976L7.855,7.018L7.829,7.059L7.801,7.098L7.772,7.136L7.74,7.172L7.707,7.207L7.672,7.24L7.636,7.272L7.598,7.301L7.559,7.329L7.518,7.355L7.476,7.379L7.433,7.401L7.389,7.421L7.344,7.439L7.297,7.455L7.25,7.468L7.201,7.48L7.152,7.488L7.102,7.495L7.051,7.499L7,7.5L6.949,7.499L6.898,7.495L6.848,7.488L6.799,7.48L6.75,7.468L6.703,7.455L6.656,7.439L6.611,7.421L6.567,7.401L6.524,7.379L6.482,7.355L6.441,7.329L6.402,7.301L6.364,7.272L6.328,7.24L6.293,7.207L6.26,7.172L6.228,7.136L6.199,7.098L6.171,7.059L6.145,7.018L6.121,6.976L6.099,6.933L6.079,6.889L6.061,6.844L6.045,6.797L6.032,6.75L6.02,6.701L6.012,6.652L6.005,6.602L6.001,6.551L6,6.5L6.001,6.449L6.005,6.398L6.012,6.348L6.02,6.299L6.032,6.25L6.045,6.203L6.061,6.156L6.079,6.111L6.099,6.067L6.121,6.024L6.145,5.982L6.171,5.941L6.199,5.902L6.228,5.864L6.26,5.828L6.293,5.793L6.328,5.76L6.364,5.728L6.402,5.699L6.441,5.671L6.482,5.645L6.524,5.621L6.567,5.599L6.611,5.579L6.656,5.561L6.703,5.545L6.75,5.532L6.799,5.52L6.848,5.512L6.898,5.505L6.949,5.501L7,5.5L7.051,5.501ZM6.97,5.918L6.94,5.92L6.911,5.924L6.882,5.929L6.854,5.935L6.827,5.943L6.8,5.952L6.773,5.962L6.748,5.974L6.723,5.987L6.698,6.001L6.674,6.016L6.651,6.033L6.629,6.05L6.608,6.068L6.588,6.088L6.568,6.108L6.55,6.129L6.533,6.151L6.516,6.174L6.501,6.198L6.487,6.223L6.474,6.248L6.462,6.273L6.452,6.3L6.443,6.327L6.435,6.354L6.429,6.382L6.424,6.411L6.42,6.44L6.418,6.47L6.417,6.5L6.418,6.53L6.42,6.56L6.424,6.589L6.429,6.618L6.435,6.646L6.443,6.673L6.452,6.7L6.462,6.727L6.474,6.752L6.487,6.777L6.501,6.802L6.516,6.826L6.533,6.849L6.55,6.871L6.568,6.892L6.588,6.912L6.608,6.932L6.629,6.95L6.651,6.967L6.674,6.984L6.698,6.999L6.723,7.013L6.748,7.026L6.773,7.038L6.8,7.048L6.827,7.057L6.854,7.065L6.882,7.071L6.911,7.076L6.94,7.08L6.97,7.082L7,7.083L7.03,7.082L7.06,7.08L7.089,7.076L7.118,7.071L7.146,7.065L7.173,7.057L7.2,7.048L7.227,7.038L7.252,7.026L7.277,7.013L7.302,6.999L7.326,6.984L7.349,6.967L7.371,6.95L7.392,6.932L7.412,6.912L7.432,6.892L7.45,6.871L7.467,6.849L7.484,6.826L7.499,6.802L7.513,6.777L7.526,6.752L7.538,6.727L7.548,6.7L7.557,6.673L7.565,6.646L7.571,6.618L7.576,6.589L7.58,6.56L7.582,6.53L7.583,6.5L7.582,6.47L7.58,6.44L7.576,6.411L7.571,6.382L7.565,6.354L7.557,6.327L7.548,6.3L7.538,6.273L7.526,6.248L7.513,6.223L7.499,6.198L7.484,6.174L7.467,6.151L7.45,6.129L7.432,6.108L7.412,6.088L7.392,6.068L7.371,6.05L7.349,6.033L7.326,6.016L7.302,6.001L7.277,5.987L7.252,5.974L7.227,5.962L7.2,5.952L7.173,5.943L7.146,5.935L7.118,5.929L7.089,5.924L7.06,5.92L7.03,5.918L7,5.917L6.97,5.918Z"/>
            <circle cx="8" cy="12.5" r="1" style="fill:white;"/>
            <path d="M8.051,11.501L8.102,11.505L8.152,11.512L8.201,11.52L8.25,11.532L8.297,11.545L8.344,11.561L8.389,11.579L8.433,11.599L8.476,11.621L8.518,11.645L8.559,11.671L8.598,11.699L8.636,11.728L8.672,11.76L8.707,11.793L8.74,11.828L8.772,11.864L8.801,11.902L8.829,11.941L8.855,11.982L8.879,12.024L8.901,12.067L8.921,12.111L8.939,12.156L8.955,12.203L8.968,12.25L8.98,12.299L8.988,12.348L8.995,12.398L8.999,12.449L9,12.5L8.999,12.551L8.995,12.602L8.988,12.652L8.98,12.701L8.968,12.75L8.955,12.797L8.939,12.844L8.921,12.889L8.901,12.933L8.879,12.976L8.855,13.018L8.829,13.059L8.801,13.098L8.772,13.136L8.74,13.172L8.707,13.207L8.672,13.24L8.636,13.272L8.598,13.301L8.559,13.329L8.518,13.355L8.476,13.379L8.433,13.401L8.389,13.421L8.344,13.439L8.297,13.455L8.25,13.468L8.201,13.48L8.152,13.488L8.102,13.495L8.051,13.499L8,13.5L7.949,13.499L7.898,13.495L7.848,13.488L7.799,13.48L7.75,13.468L7.703,13.455L7.656,13.439L7.611,13.421L7.567,13.401L7.524,13.379L7.482,13.355L7.441,13.329L7.402,13.301L7.364,13.272L7.328,13.24L7.293,13.207L7.26,13.172L7.228,13.136L7.199,13.098L7.171,13.059L7.145,13.018L7.121,12.976L7.099,12.933L7.079,12.889L7.061,12.844L7.045,12.797L7.032,12.75L7.02,12.701L7.012,12.652L7.005,12.602L7.001,12.551L7,12.5L7.001,12.449L7.005,12.398L7.012,12.348L7.02,12.299L7.032,12.25L7.045,12.203L7.061,12.156L7.079,12.111L7.099,12.067L7.121,12.024L7.145,11.982L7.171,11.941L7.199,11.902L7.228,11.864L7.26,11.828L7.293,11.793L7.328,11.76L7.364,11.728L7.402,11.699L7.441,11.671L7.482,11.645L7.524,11.621L7.567,11.599L7.611,11.579L7.656,11.561L7.703,11.545L7.75,11.532L7.799,11.52L7.848,11.512L7.898,11.505L7.949,11.501L8,11.5L8.051,11.501ZM7.97,11.918L7.94,11.92L7.911,11.924L7.882,11.929L7.854,11.935L7.827,11.943L7.8,11.952L7.773,11.962L7.748,11.974L7.723,11.987L7.698,12.001L7.674,12.016L7.651,12.033L7.629,12.05L7.608,12.068L7.588,12.088L7.568,12.108L7.55,12.129L7.533,12.151L7.516,12.174L7.501,12.198L7.487,12.223L7.474,12.248L7.462,12.273L7.452,12.3L7.443,12.327L7.435,12.354L7.429,12.382L7.424,12.411L7.42,12.44L7.418,12.47L7.417,12.5L7.418,12.53L7.42,12.56L7.424,12.589L7.429,12.618L7.435,12.646L7.443,12.673L7.452,12.7L7.462,12.727L7.474,12.752L7.487,12.777L7.501,12.802L7.516,12.826L7.533,12.849L7.55,12.871L7.568,12.892L7.588,12.912L7.608,12.932L7.629,12.95L7.651,12.967L7.674,12.984L7.698,12.999L7.723,13.013L7.748,13.026L7.773,13.038L7.8,13.048L7.827,13.057L7.854,13.065L7.882,13.071L7.911,13.076L7.94,13.08L7.97,13.082L8,13.083L8.03,13.082L8.06,13.08L8.089,13.076L8.118,13.071L8.146,13.065L8.173,13.057L8.2,13.048L8.227,13.038L8.252,13.026L8.277,13.013L8.302,12.999L8.326,12.984L8.349,12.967L8.371,12.95L8.392,12.932L8.412,12.912L8.432,12.892L8.45,12.871L8.467,12.849L8.484,12.826L8.499,12.802L8.513,12.777L8.526,12.752L8.538,12.727L8.548,12.7L8.557,12.673L8.565,12.646L8.571,12.618L8.576,12.589L8.58,12.56L8.582,12.53L8.583,12.5L8.582,12.47L8.58,12.44L8.576,12.411L8.571,12.382L8.565,12.354L8.557,12.327L8.548,12.3L8.538,12.273L8.526,12.248L8.513,12.223L8.499,12.198L8.484,12.174L8.467,12.151L8.45,12.129L8.432,12.108L8.412,12.088L8.392,12.068L8.371,12.05L8.349,12.033L8.326,12.016L8.302,12.001L8.277,11.987L8.252,11.974L8.227,11.962L8.2,11.952L8.173,11.943L8.146,11.935L8.118,11.929L8.089,11.924L8.06,11.92L8.03,11.918L8,11.917L7.97,11.918Z"/>
            <circle cx="8" cy="18" r="1" style="fill:white;"/>
            <path d="M8.051,17.001L8.102,17.005L8.152,17.012L8.201,17.02L8.25,17.032L8.297,17.045L8.344,17.061L8.389,17.079L8.433,17.099L8.476,17.121L8.518,17.145L8.559,17.171L8.598,17.199L8.636,17.228L8.672,17.26L8.707,17.293L8.74,17.328L8.772,17.364L8.801,17.402L8.829,17.441L8.855,17.482L8.879,17.524L8.901,17.567L8.921,17.611L8.939,17.656L8.955,17.703L8.968,17.75L8.98,17.799L8.988,17.848L8.995,17.898L8.999,17.949L9,18L8.999,18.051L8.995,18.102L8.988,18.152L8.98,18.201L8.968,18.25L8.955,18.297L8.939,18.344L8.921,18.389L8.901,18.433L8.879,18.476L8.855,18.518L8.829,18.559L8.801,18.598L8.772,18.636L8.74,18.672L8.707,18.707L8.672,18.74L8.636,18.772L8.598,18.801L8.559,18.829L8.518,18.855L8.476,18.879L8.433,18.901L8.389,18.921L8.344,18.939L8.297,18.955L8.25,18.968L8.201,18.98L8.152,18.988L8.102,18.995L8.051,18.999L8,19L7.949,18.999L7.898,18.995L7.848,18.988L7.799,18.98L7.75,18.968L7.703,18.955L7.656,18.939L7.611,18.921L7.567,18.901L7.524,18.879L7.482,18.855L7.441,18.829L7.402,18.801L7.364,18.772L7.328,18.74L7.293,18.707L7.26,18.672L7.228,18.636L7.199,18.598L7.171,18.559L7.145,18.518L7.121,18.476L7.099,18.433L7.079,18.389L7.061,18.344L7.045,18.297L7.032,18.25L7.02,18.201L7.012,18.152L7.005,18.102L7.001,18.051L7,18L7.001,17.949L7.005,17.898L7.012,17.848L7.02,17.799L7.032,17.75L7.045,17.703L7.061,17.656L7.079,17.611L7.099,17.567L7.121,17.524L7.145,17.482L7.171,17.441L7.199,17.402L7.228,17.364L7.26,17.328L7.293,17.293L7.328,17.26L7.364,17.228L7.402,17.199L7.441,17.171L7.482,17.145L7.524,17.121L7.567,17.099L7.611,17.079L7.656,17.061L7.703,17.045L7.75,17.032L7.799,17.02L7.848,17.012L7.898,17.005L7.949,17.001L8,17L8.051,17.001ZM7.97,17.418L7.94,17.42L7.911,17.424L7.882,17.429L7.854,17.435L7.827,17.443L7.8,17.452L7.773,17.462L7.748,17.474L7.723,17.487L7.698,17.501L7.674,17.516L7.651,17.533L7.629,17.55L7.608,17.568L7.588,17.588L7.568,17.608L7.55,17.629L7.533,17.651L7.516,17.674L7.501,17.698L7.487,17.723L7.474,17.748L7.462,17.773L7.452,17.8L7.443,17.827L7.435,17.854L7.429,17.882L7.424,17.911L7.42,17.94L7.418,17.97L7.417,18L7.418,18.03L7.42,18.06L7.424,18.089L7.429,18.118L7.435,18.146L7.443,18.173L7.452,18.2L7.462,18.227L7.474,18.252L7.487,18.277L7.501,18.302L7.516,18.326L7.533,18.349L7.55,18.371L7.568,18.392L7.588,18.412L7.608,18.432L7.629,18.45L7.651,18.467L7.674,18.484L7.698,18.499L7.723,18.513L7.748,18.526L7.773,18.538L7.8,18.548L7.827,18.557L7.854,18.565L7.882,18.571L7.911,18.576L7.94,18.58L7.97,18.582L8,18.583L8.03,18.582L8.06,18.58L8.089,18.576L8.118,18.571L8.146,18.565L8.173,18.557L8.2,18.548L8.227,18.538L8.252,18.526L8.277,18.513L8.302,18.499L8.326,18.484L8.349,18.467L8.371,18.45L8.392,18.432L8.412,18.412L8.432,18.392L8.45,18.371L8.467,18.349L8.484,18.326L8.499,18.302L8.513,18.277L8.526,18.252L8.538,18.227L8.548,18.2L8.557,18.173L8.565,18.146L8.571,18.118L8.576,18.089L8.58,18.06L8.582,18.03L8.583,18L8.582,17.97L8.58,17.94L8.576,17.911L8.571,17.882L8.565,17.854L8.557,17.827L8.548,17.8L8.538,17.773L8.526,17.748L8.513,17.723L8.499,17.698L8.484,17.674L8.467,17.651L8.45,17.629L8.432,17.608L8.412,17.588L8.392,17.568L8.371,17.55L8.349,17.533L8.326,17.516L8.302,17.501L8.277,17.487L8.252,17.474L8.227,17.462L8.2,17.452L8.173,17.443L8.146,17.435L8.118,17.429L8.089,17.424L8.06,17.42L8.03,17.418L8,17.417L7.97,17.418Z"/>
            <circle cx="6.75" cy="4.412" r="0.25" style="fill:white;"/>
            <path d="M8.685,4.426C8.685,4.293 8.577,4.186 8.445,4.186L7.566,4.186C7.434,4.186 7.326,4.293 7.326,4.426C7.326,4.558 7.434,4.665 7.566,4.665L8.445,4.665C8.577,4.665 8.685,4.558 8.685,4.426Z" style="fill:white;"/>
        </g>
    </g>
    <g id="ic_video">
        <g id="icon1" serif:id="icon">
        </g>
    </g>
</svg>
