<?xml version="1.0" encoding="UTF-8" standalone="no"?>
<!DOCTYPE svg PUBLIC "-//W3C//DTD SVG 1.1//EN" "http://www.w3.org/Graphics/SVG/1.1/DTD/svg11.dtd">
<svg width="100%" height="100%" viewBox="0 0 24 24" version="1.1" xmlns="http://www.w3.org/2000/svg" xmlns:xlink="http://www.w3.org/1999/xlink" xml:space="preserve" xmlns:serif="http://www.serif.com/" style="fill-rule:evenodd;clip-rule:evenodd;stroke-linecap:round;stroke-linejoin:round;stroke-miterlimit:1;">
    <g id="ic_equip">
        <rect id="bg" x="0" y="0" width="24" height="24" style="fill:rgb(235,235,235);fill-opacity:0;"/>
        <g id="icon">
            <path d="M16.411,19.937C16.453,19.78 16.36,19.619 16.203,19.577L6.076,16.863C5.92,16.821 5.758,16.915 5.716,17.071L5.713,17.083C5.671,17.24 5.764,17.401 5.921,17.443L16.048,20.156C16.205,20.198 16.366,20.105 16.408,19.949L16.411,19.937Z" style="fill:rgb(0,222,179);"/>
            <path d="M16.299,19.752C16.341,19.595 16.248,19.434 16.091,19.392L5.964,16.678C5.807,16.636 5.646,16.73 5.604,16.886L5.601,16.898C5.559,17.055 5.652,17.216 5.809,17.258L15.936,19.972C16.092,20.014 16.254,19.92 16.296,19.764L16.299,19.752Z"/>
            <g id="g3">
                <path d="M6.118,15.978C6.118,15.978 5.315,11.811 5.783,9.312C6.183,6.249 9.728,4.471 12.443,4.561C15.266,4.655 18.31,6.574 18.974,10.131C18.966,12.192 18.985,14.131 18.959,15.755C18.545,17.658 17.182,19.103 17.182,19.103L6.118,15.978Z" style="fill:rgb(0,222,179);"/>
                <path d="M17.432,6.701C18.176,7.561 18.73,8.638 18.974,9.925C18.966,12.033 18.986,14.017 18.959,15.678C18.528,17.625 17.11,19.103 17.11,19.103L6.127,16C6.127,16 6.093,15.828 6.043,15.532C6.043,15.532 14.411,17.897 16.296,18.43C16.528,18.496 16.777,18.421 16.934,18.239C17.361,17.708 18.204,16.535 18.519,15.111C18.546,13.45 18.526,11.466 18.534,9.358C18.34,8.34 17.953,7.453 17.432,6.701Z" style="fill:rgb(0,171,138);"/>
                <path d="M5.603,15.906C5.603,15.906 4.767,11.644 5.254,9.087C5.67,5.954 9.357,4.135 12.182,4.227C15.117,4.323 18.284,6.286 18.974,9.925C18.966,12.033 18.986,14.017 18.959,15.678C18.528,17.625 17.11,19.103 17.11,19.103L5.603,15.906Z" style="fill:none;stroke:black;stroke-width:0.42px;"/>
                <path d="M16.996,7.563C17.131,7.394 17.104,7.147 16.934,7.011C16.934,7.011 16.387,6.437 16.099,6.207C15.822,5.986 15.206,5.631 15.206,5.631C15.037,5.496 14.79,5.524 14.654,5.693C14.519,5.863 14.547,6.11 14.716,6.245C14.716,6.245 15.354,6.617 15.642,6.847C15.93,7.077 16.444,7.625 16.444,7.625C16.614,7.76 16.861,7.732 16.996,7.563Z" style="fill:white;"/>
                <ellipse cx="13.85" cy="5.419" rx="0.46" ry="0.46" style="fill:white;"/>
            </g>
            <g id="g2">
                <path d="M18.972,11.099C18.972,11.099 14.689,10.327 11.821,9.81C11.327,9.721 10.825,9.913 10.517,10.309C10.208,10.704 10.145,11.238 10.352,11.695C10.962,13.043 11.609,14.471 11.609,14.471L18.974,14.711L18.972,11.099Z" style="fill:rgb(105,105,105);stroke:black;stroke-width:0.42px;"/>
                <path d="M11.767,12.747C11.908,12.682 11.97,12.516 11.905,12.375L11.484,11.457C11.419,11.316 11.253,11.254 11.112,11.319C10.972,11.383 10.91,11.55 10.975,11.69L11.396,12.609C11.461,12.749 11.627,12.811 11.767,12.747Z" style="fill:white;"/>
            </g>
            <g id="g1">
                <ellipse cx="8.17" cy="12.461" rx="0.877" ry="0.891" style="fill:rgb(235,235,235);"/>
                <path d="M8.742,11.785C8.929,11.949 9.047,12.191 9.047,12.461C9.047,12.952 8.654,13.352 8.17,13.352C7.827,13.352 7.529,13.15 7.385,12.858C7.539,12.992 7.739,13.073 7.957,13.073C8.441,13.073 8.834,12.674 8.834,12.182C8.834,12.04 8.801,11.905 8.742,11.785Z" style="fill:rgb(179,179,179);"/>
                <ellipse cx="8.04" cy="12.334" rx="1.1" ry="1.089" style="fill:none;stroke:black;stroke-width:0.42px;"/>
            </g>
        </g>
    </g>
</svg>
