<?xml version="1.0" encoding="UTF-8" standalone="no"?>
<!DOCTYPE svg PUBLIC "-//W3C//DTD SVG 1.1//EN" "http://www.w3.org/Graphics/SVG/1.1/DTD/svg11.dtd">
<svg width="100%" height="100%" viewBox="0 0 24 24" version="1.1" xmlns="http://www.w3.org/2000/svg" xmlns:xlink="http://www.w3.org/1999/xlink" xml:space="preserve" xmlns:serif="http://www.serif.com/" style="fill-rule:evenodd;clip-rule:evenodd;stroke-miterlimit:1;">
    <g id="ic_event">
        <rect id="bg" x="0" y="0" width="24" height="24" style="fill:rgb(235,235,235);fill-opacity:0;"/>
        <g id="icon">
            <path d="M17.5,16.625C17.5,16.119 17.089,15.708 16.583,15.708L7.417,15.708C6.911,15.708 6.5,16.119 6.5,16.625L6.5,19.375C6.5,19.881 6.911,20.292 7.417,20.292L16.583,20.292C17.089,20.292 17.5,19.881 17.5,19.375L17.5,16.625Z" style="fill:white;stroke:black;stroke-width:0.42px;"/>
            <path d="M17.5,11.125C17.5,10.619 17.089,10.208 16.583,10.208L7.417,10.208C6.911,10.208 6.5,10.619 6.5,11.125L6.5,13.875C6.5,14.381 6.911,14.792 7.417,14.792L16.583,14.792C17.089,14.792 17.5,14.381 17.5,13.875L17.5,11.125Z" style="fill:white;stroke:black;stroke-width:0.42px;"/>
            <path d="M19,4.738C19,4.081 18.467,3.547 17.809,3.547L6.827,3.547C6.17,3.547 5.636,4.081 5.636,4.738L5.636,8.309C5.636,8.967 6.17,9.5 6.827,9.5L17.809,9.5C18.467,9.5 19,8.967 19,8.309L19,4.738Z" style="fill:rgb(47,105,255);"/>
            <path d="M18.046,3.571C18.59,3.681 19,4.162 19,4.738L19,8.309C19,8.967 18.467,9.5 17.809,9.5L6.827,9.5C6.322,9.5 5.89,9.185 5.717,8.742C5.794,8.757 5.873,8.765 5.954,8.765L16.937,8.765C17.594,8.765 18.127,8.232 18.127,7.575L18.127,4.003C18.127,3.851 18.099,3.705 18.046,3.571Z" style="fill:rgb(0,58,208);"/>
            <path d="M18.8,4.751C18.8,4.108 18.278,3.586 17.634,3.586L6.366,3.586C5.722,3.586 5.2,4.108 5.2,4.751L5.2,8.249C5.2,8.892 5.722,9.414 6.366,9.414L17.634,9.414C18.278,9.414 18.8,8.892 18.8,8.249L18.8,4.751Z" style="fill:none;stroke:black;stroke-width:0.42px;stroke-linejoin:round;"/>
            <circle cx="7" cy="6.5" r="0.75" style="fill:white;stroke:black;stroke-width:0.42px;"/>
            <circle cx="8" cy="12.5" r="0.75" style="fill:white;stroke:black;stroke-width:0.42px;"/>
            <circle cx="8" cy="18" r="0.75" style="fill:white;stroke:black;stroke-width:0.42px;"/>
            <ellipse cx="16.671" cy="4.998" rx="0.523" ry="0.496" style="fill:white;"/>
            <path d="M15.852,5C15.852,4.727 15.631,4.506 15.358,4.506L14.169,4.506C13.897,4.506 13.675,4.727 13.675,5C13.675,5.272 13.897,5.493 14.169,5.493L15.358,5.493C15.631,5.493 15.852,5.272 15.852,5Z" style="fill:white;"/>
        </g>
    </g>
</svg>
