<?xml version="1.0" encoding="UTF-8" standalone="no"?>
<!DOCTYPE svg PUBLIC "-//W3C//DTD SVG 1.1//EN" "http://www.w3.org/Graphics/SVG/1.1/DTD/svg11.dtd">
<svg width="100%" height="100%" viewBox="0 0 24 24" version="1.1" xmlns="http://www.w3.org/2000/svg" xmlns:xlink="http://www.w3.org/1999/xlink" xml:space="preserve" xmlns:serif="http://www.serif.com/" style="fill-rule:evenodd;clip-rule:evenodd;stroke-linejoin:round;stroke-miterlimit:1;">
    <g id="ic_refund">
        <rect id="bg" x="0" y="0" width="24" height="24" style="fill:rgb(235,235,235);fill-opacity:0;"/>
        <g id="icon">
            <path d="M15.638,9.143C15.913,9.08 16.148,8.905 16.287,8.66C16.425,8.415 16.454,8.123 16.366,7.855C15.915,6.591 15.083,5.745 13.884,5.391C13.541,5.296 13.303,4.983 13.303,4.627C13.283,4.62 13.283,4.614 13.283,4.608C13.283,4.38 13.192,4.162 13.031,4.001C12.87,3.84 12.652,3.749 12.424,3.749C12.423,3.749 12.423,3.749 12.422,3.749C11.948,3.749 11.563,4.134 11.563,4.608C11.563,4.622 11.563,4.636 11.563,4.649C11.563,5.023 11.317,5.351 10.959,5.458C9.403,5.924 8.451,7.18 8.451,8.898C8.451,10.522 9.343,11.529 11.766,12.65C13.518,13.462 14.065,13.966 14.065,14.794C14.065,15.59 13.564,16.11 12.689,16.11C11.719,16.11 11.067,15.649 10.718,14.72C10.535,14.273 10.045,14.036 9.581,14.169C9.326,14.188 9.068,14.262 8.828,14.33C8.553,14.409 8.325,14.601 8.201,14.858C8.077,15.115 8.069,15.413 8.179,15.677C8.729,16.902 9.64,17.693 10.951,18.034C11.302,18.123 11.547,18.439 11.547,18.8C11.563,18.803 11.563,18.805 11.563,18.808C11.563,19.035 11.653,19.254 11.815,19.415C11.976,19.576 12.194,19.667 12.422,19.667C12.426,19.667 12.43,19.667 12.434,19.667C12.659,19.667 12.875,19.577 13.034,19.418C13.194,19.259 13.283,19.043 13.283,18.818C13.283,18.818 13.283,18.817 13.283,18.817C13.283,18.457 13.531,18.143 13.881,18.06C15.672,17.629 16.692,16.202 16.692,14.193C16.692,12.406 15.785,11.383 13.314,10.344C11.61,9.629 11.11,9.158 11.11,8.362C11.11,7.729 11.516,7.16 12.22,7.16C13.028,7.16 13.569,7.674 13.812,8.668C13.942,9.113 14.396,9.38 14.848,9.276C15.111,9.264 15.385,9.201 15.638,9.143Z" style="fill:rgb(255,201,0);fill-rule:nonzero;"/>
            <path d="M14.979,11.043C16.204,11.842 16.692,12.748 16.692,14.05C16.692,16.117 15.599,17.583 13.682,18.022C13.317,18.105 13.059,18.43 13.058,18.804C13.058,18.804 13.058,18.805 13.058,18.806C13.058,19.034 12.968,19.253 12.806,19.414C12.645,19.576 12.426,19.667 12.197,19.667C12.166,19.667 12.135,19.667 12.104,19.667C11.82,19.667 11.567,19.532 11.406,19.322C11.494,19.352 11.589,19.368 11.687,19.368C11.718,19.368 11.749,19.368 11.78,19.368C12.008,19.368 12.227,19.277 12.389,19.116C12.55,18.954 12.641,18.735 12.641,18.507C12.641,18.506 12.641,18.506 12.641,18.505C12.641,18.131 12.9,17.807 13.264,17.723C15.182,17.284 16.274,15.818 16.274,13.751C16.274,12.609 15.899,11.771 14.979,11.043ZM11.242,9.12C10.558,8.703 10.324,8.308 10.324,7.768C10.324,7.118 10.758,6.535 11.508,6.535C11.97,6.535 12.35,6.686 12.643,6.984C12.432,6.884 12.192,6.833 11.925,6.833C11.175,6.833 10.742,7.417 10.742,8.067C10.742,8.477 10.877,8.804 11.242,9.12ZM14.701,5.453C15.456,5.917 16.008,6.63 16.348,7.565C16.438,7.834 16.409,8.128 16.269,8.375C16.129,8.622 15.891,8.797 15.614,8.858C15.313,8.924 14.98,8.998 14.671,9.019C14.325,9.095 13.98,8.959 13.776,8.693C13.925,8.744 14.089,8.756 14.253,8.72C14.563,8.699 14.895,8.626 15.196,8.559C15.473,8.498 15.712,8.323 15.852,8.076C15.992,7.83 16.02,7.535 15.931,7.266C15.656,6.513 15.245,5.904 14.701,5.453Z" style="fill:rgb(222,175,0);fill-rule:nonzero;"/>
            <path d="M15.614,8.858C15.891,8.797 16.129,8.622 16.269,8.375C16.409,8.128 16.438,7.834 16.348,7.565C15.87,6.253 14.976,5.376 13.685,5.014C13.327,4.919 13.078,4.594 13.078,4.224C13.058,4.223 13.058,4.223 13.058,4.222C13.058,3.731 12.66,3.333 12.169,3.333C12.159,3.333 12.148,3.333 12.137,3.333C11.633,3.333 11.225,3.742 11.225,4.245C11.225,4.246 11.225,4.246 11.225,4.247C11.225,4.635 10.967,4.975 10.594,5.082C8.928,5.558 7.908,6.849 7.908,8.617C7.908,10.283 8.858,11.317 11.442,12.467C13.308,13.3 13.892,13.817 13.892,14.667C13.892,15.483 13.358,16.017 12.425,16.017C11.38,16.017 10.681,15.534 10.313,14.559C10.131,14.114 9.644,13.875 9.181,14.003C8.879,14.034 8.56,14.122 8.27,14.202C7.991,14.278 7.76,14.471 7.634,14.731C7.509,14.991 7.501,15.292 7.614,15.557C8.198,16.828 9.177,17.646 10.588,17.995C10.953,18.084 11.21,18.411 11.21,18.787C11.225,18.787 11.225,18.787 11.225,18.788C11.225,19.273 11.619,19.667 12.104,19.667C12.135,19.667 12.166,19.667 12.197,19.667C12.426,19.667 12.645,19.576 12.806,19.414C12.968,19.253 13.058,19.034 13.058,18.806C13.058,18.805 13.058,18.804 13.058,18.804C13.059,18.43 13.317,18.105 13.682,18.022C15.599,17.583 16.692,16.117 16.692,14.05C16.692,12.217 15.725,11.167 13.092,10.1C11.275,9.367 10.742,8.883 10.742,8.067C10.742,7.417 11.175,6.833 11.925,6.833C12.792,6.833 13.371,7.367 13.627,8.401C13.758,8.849 14.214,9.119 14.671,9.019C14.98,8.998 15.313,8.924 15.614,8.858Z" style="fill:none;fill-rule:nonzero;stroke:black;stroke-width:0.42px;"/>
            <ellipse cx="12.913" cy="10.725" rx="0.196" ry="0.19" style="fill:white;"/>
            <path d="M14.374,11.48C14.425,11.378 14.383,11.254 14.282,11.203L13.533,10.828C13.432,10.777 13.308,10.818 13.256,10.92C13.205,11.021 13.247,11.145 13.348,11.196L14.097,11.572C14.198,11.623 14.322,11.582 14.374,11.48Z" style="fill:white;"/>
            <ellipse cx="9.856" cy="15.058" rx="0.211" ry="0.205" style="fill:white;"/>
        </g>
    </g>
</svg>
