<svg width="100%" height="100%" viewBox="0 0 24 24" version="1.1" xmlns="http://www.w3.org/2000/svg"
     style="fill-rule:evenodd;clip-rule:evenodd;stroke-linecap:round;stroke-linejoin:round;stroke-miterlimit:1;">
    <g id="ic_setting">
        <rect id="bg" x="0" y="0" width="24" height="24" style="fill:white;fill-opacity:0;"/>
        <g id="icon">
            <path d="M13,21L11,21C10.448,21 10,20.552 10,20L10,18.71C8.936,18.392 7.977,17.828 7.191,17.084L6.273,17.52C5.795,17.796 5.183,17.632 4.907,17.154L4.421,15.992C4.145,15.514 4.686,14.699 5.164,14.423L5.803,13.832C5.679,13.311 5.709,12.667 5.709,12.109C5.709,11.55 5.995,10.624 6.119,10.103L5.152,9.488C4.675,9.212 4.395,8.896 4.671,8.418L5.256,7.094C5.532,6.616 6.199,6.584 6.677,6.86L7.395,7.329C8.181,6.586 9.732,5.927 10.796,5.609L10.833,4.671C10.84,3.929 10.975,3.538 11.527,3.538L13.057,3.367C13.609,3.367 14.058,3.864 14.058,4.416L14,5.29C15.064,5.608 16.023,6.172 16.809,6.916L17.93,6.269C18.408,5.993 19.02,6.158 19.295,6.636L20.295,8.368C20.571,8.846 20.407,9.458 19.929,9.734L18.811,10.379C18.935,10.899 19,11.442 19,12C19,12.559 18.934,13.102 18.811,13.623L19.928,14.268C20.406,14.544 20.57,15.156 20.294,15.634L19.294,17.366C19.018,17.844 18.406,18.008 17.928,17.732L16.808,17.085C16.022,17.829 15.064,18.393 14,18.71L14,20C14,20.552 13.552,21 13,21ZM12,8C14.208,8 16,9.792 16,12C16,14.208 14.208,16 12,16C9.792,16 8,14.208 8,12C8,9.792 9.792,8 12,8Z"
                  style="fill:rgb(206,206,206);"/>
            <path d="M19.393,13.959L19.928,14.268C20.406,14.544 20.57,15.156 20.294,15.634L19.294,17.366C19.018,17.844 18.406,18.008 17.928,17.732L16.808,17.085C16.022,17.829 15.064,18.393 14,18.71L14,20C14,20.552 13.552,21 13,21L11,21C10.535,21 10.144,20.683 10.032,20.253C10.042,20.253 10.052,20.253 10.061,20.253L12.061,20.253C12.613,20.253 13.061,19.805 13.061,19.253L13.061,18.555C13.062,18.207 13.277,17.896 13.602,17.773C14.249,17.525 14.847,17.18 15.383,16.759C15.686,16.515 16.107,16.482 16.444,16.677C16.721,16.83 16.99,16.985 16.99,16.985C17.467,17.261 18.08,17.097 18.356,16.619L19.356,14.887C19.526,14.592 19.529,14.246 19.393,13.959ZM4.561,17.115C4.753,17.129 4.952,17.088 5.132,16.984C5.132,16.984 5.416,16.82 5.698,16.657C6.018,16.473 6.419,16.503 6.708,16.733C6.863,16.857 7.024,16.975 7.19,17.085L6.07,17.731C5.592,18.007 4.561,17.115 4.561,17.115ZM9.071,14.723C7.871,14.033 7.474,13.135 7.474,11.651C7.474,9.444 9.268,7.594 11.475,7.594C12.631,7.594 13.259,7.745 13.99,8.53C13.404,8.193 12.724,8 12,8C9.792,8 8,9.792 8,12C8,13.052 8.407,14.009 9.071,14.723ZM19.356,7.621L20.295,8.368C20.571,8.846 20.407,9.458 19.929,9.734L18.811,10.379C18.935,10.899 19,11.442 19,12C19,12.494 18.949,12.976 18.851,13.441C18.851,13.441 18.601,13.297 18.354,13.154C18.073,12.992 17.922,12.673 17.974,12.353C18.032,11.995 18.061,11.627 18.061,11.253C18.061,10.898 18.035,10.548 17.983,10.206C17.929,9.855 18.096,9.506 18.405,9.328C18.692,9.159 18.99,8.987 18.99,8.987C19.468,8.711 19.632,8.099 19.356,7.621ZM15.867,6.166L15.872,6.169L15.871,6.169L15.867,6.166ZM13.029,3C13.568,3.016 14,3.458 14,4L14,4.899C13.87,4.839 13.739,4.783 13.605,4.731C13.29,4.607 13.076,4.313 13.054,3.976C13.05,3.555 13.041,3.047 13.029,3Z"
                  style="fill:rgb(145,145,145);"/>
            <path d="M13,21L11,21C10.448,21 10,20.552 10,20L10,18.71C8.936,18.392 7.977,17.828 7.191,17.084L6.07,17.731C5.592,18.007 4.98,17.842 4.705,17.364L3.705,15.632C3.429,15.154 3.593,14.542 4.071,14.266L5.189,13.621C5.065,13.101 5,12.558 5,12C5,11.441 5.066,10.898 5.189,10.377L4.072,9.732C3.594,9.456 3.43,8.844 3.706,8.366L4.706,6.634C4.982,6.156 5.594,5.992 6.072,6.268L7.192,6.915C7.978,6.171 8.936,5.607 10,5.29L10,4C10,3.448 10.448,3 11,3L13,3C13.552,3 14,3.448 14,4L14,5.29C15.064,5.608 16.023,6.172 16.809,6.916L17.93,6.269C18.408,5.993 19.02,6.158 19.295,6.636L20.295,8.368C20.571,8.846 20.407,9.458 19.929,9.734L18.811,10.379C18.935,10.899 19,11.442 19,12C19,12.559 18.934,13.102 18.811,13.623L19.928,14.268C20.406,14.544 20.57,15.156 20.294,15.634L19.294,17.366C19.018,17.844 18.406,18.008 17.928,17.732L16.808,17.085C16.022,17.829 15.064,18.393 14,18.71L14,20C14,20.552 13.552,21 13,21ZM12,8C14.208,8 16,9.792 16,12C16,14.208 14.208,16 12,16C9.792,16 8,14.208 8,12C8,9.792 9.792,8 12,8Z"
                  style="fill:none;stroke:black;stroke-width:0.83px;"/>
            <ellipse cx="7.785" cy="14.939" rx="0.362" ry="0.359" style="fill:white;"/>
            <path d="M8.248,15.517C8.14,15.68 8.185,15.9 8.348,16.008C8.348,16.008 8.401,16.069 8.498,16.165C8.646,16.31 8.902,16.515 9.22,16.727C9.723,17.063 10.234,17.259 10.234,17.259C10.397,17.367 10.617,17.322 10.725,17.16C10.833,16.997 10.788,16.777 10.625,16.669C10.625,16.669 10.031,16.434 9.617,16.141C9.216,15.857 8.739,15.418 8.739,15.418C8.576,15.31 8.356,15.354 8.248,15.517Z"
                  style="fill:white;"/>
        </g>
        <animateTransform
                attributeName="transform"
                type="rotate"
                begin="bound.mouseenter"
                dur="0.2s"
                from="0 12 12"
                to="90 12 12"
                fill="freeze"/>
        <animateTransform
                attributeName="transform"
                type="rotate"
                begin="bound.mouseout"
                dur="0.2s"
                from="90 12 12"
                to="0 12 12"
                fill="freeze"/>
    </g>
    <rect id="bound" x="0" y="0" width="24" height="24" style="fill:white;fill-opacity:0;"/>
</svg>
