<svg width="28" height="28" viewBox="0 0 24 24" version="1.1" xmlns="http://www.w3.org/2000/svg"
     style="fill-rule:evenodd;clip-rule:evenodd;stroke-linecap:round;stroke-linejoin:round;stroke-miterlimit:1;">
    <g id="ic_setting">
        <rect id="bg" x="0" y="0" width="24" height="24" style="fill:white;fill-opacity:0;"/>
        <g id="icon">
            <path d="M13,21L11,21C10.448,21 10,20.552 10,20L10,18.71C8.936,18.392 7.977,17.828 7.191,17.084L6.07,17.731C5.592,18.007 4.98,17.842 4.705,17.364L3.705,15.632C3.429,15.154 3.593,14.542 4.071,14.266L5.189,13.621C5.065,13.101 5,12.558 5,12C5,11.441 5.066,10.898 5.189,10.377L4.072,9.732C3.594,9.456 3.43,8.844 3.706,8.366L4.706,6.634C4.982,6.156 5.594,5.992 6.072,6.268L7.192,6.915C7.978,6.171 8.936,5.607 10,5.29L10,4C10,3.448 10.448,3 11,3L13,3C13.552,3 14,3.448 14,4L14,5.29C15.064,5.608 16.023,6.172 16.809,6.916L17.93,6.269C18.408,5.993 19.02,6.158 19.295,6.636L20.295,8.368C20.571,8.846 20.407,9.458 19.929,9.734L18.811,10.379C18.935,10.899 19,11.442 19,12C19,12.559 18.934,13.102 18.811,13.623L19.928,14.268C20.406,14.544 20.57,15.156 20.294,15.634L19.294,17.366C19.018,17.844 18.406,18.008 17.928,17.732L16.808,17.085C16.022,17.829 15.064,18.393 14,18.71L14,20C14,20.552 13.552,21 13,21ZM12,8C14.208,8 16,9.792 16,12C16,14.208 14.208,16 12,16C9.792,16 8,14.208 8,12C8,9.792 9.792,8 12,8Z"
                  style="fill:none;stroke:black;stroke-width:0.83px;"/>
            <ellipse cx="7.785" cy="14.939" rx="0.362" ry="0.359" style="fill:white;"/>
            <path d="M8.248,15.517C8.14,15.68 8.185,15.9 8.348,16.008C8.348,16.008 8.401,16.069 8.498,16.165C8.646,16.31 8.902,16.515 9.22,16.727C9.723,17.063 10.234,17.259 10.234,17.259C10.397,17.367 10.617,17.322 10.725,17.16C10.833,16.997 10.788,16.777 10.625,16.669C10.625,16.669 10.031,16.434 9.617,16.141C9.216,15.857 8.739,15.418 8.739,15.418C8.576,15.31 8.356,15.354 8.248,15.517Z"
                  style="fill:white;"/>
        </g>
    </g>
    <rect id="bound" x="0" y="0" width="24" height="24" style="fill:white;fill-opacity:0;"/>
</svg>
