<?xml version="1.0" encoding="UTF-8" standalone="no"?>
<!DOCTYPE svg PUBLIC "-//W3C//DTD SVG 1.1//EN" "http://www.w3.org/Graphics/SVG/1.1/DTD/svg11.dtd">
<svg width="100%" height="100%" viewBox="0 0 24 24" version="1.1" xmlns="http://www.w3.org/2000/svg" xmlns:xlink="http://www.w3.org/1999/xlink" xml:space="preserve" xmlns:serif="http://www.serif.com/" style="fill-rule:evenodd;clip-rule:evenodd;stroke-miterlimit:1;">
    <g id="ic_video">
        <rect id="bg" x="0" y="0" width="24" height="24" style="fill:rgb(235,235,235);fill-opacity:0;"/>
        <g id="icon">
            <path d="M17.307,10.729C17.803,10.964 18.121,11.462 18.124,12.011C18.127,12.56 17.815,13.061 17.321,13.301C14.014,14.908 8.51,17.582 5.939,18.831C5.64,18.977 5.286,18.956 5.007,18.776C4.727,18.597 4.56,18.285 4.567,17.952C4.629,15.056 4.761,8.898 4.819,6.184C4.825,5.891 4.979,5.621 5.228,5.467C5.478,5.313 5.788,5.295 6.053,5.42C8.475,6.563 13.983,9.161 17.307,10.729Z" style="fill:rgb(255,81,111);"/>
            <path d="M13.859,8.929L17.45,10.725C17.933,10.966 18.238,11.46 18.238,12C18.238,12.54 17.933,13.034 17.45,13.275C14.292,14.854 8.977,17.512 6.063,18.968C5.621,19.189 5.097,19.166 4.676,18.906C4.647,18.888 4.62,18.869 4.592,18.85L16.435,12.42C16.743,12.266 16.947,11.961 16.971,11.617C16.995,11.273 16.836,10.942 16.552,10.746L13.859,8.929Z" style="fill:rgb(244,0,60);"/>
            <path d="M17.25,10.725C17.733,10.966 18.038,11.46 18.038,12C18.038,12.54 17.733,13.034 17.25,13.275C14.183,14.809 9.095,17.352 6.263,18.768C5.821,18.989 5.297,18.966 4.876,18.706C4.456,18.446 4.2,17.987 4.2,17.493C4.2,14.541 4.2,9.459 4.2,6.507C4.2,6.013 4.456,5.554 4.876,5.294C5.297,5.034 5.821,5.011 6.263,5.232C9.095,6.648 14.183,9.191 17.25,10.725Z" style="fill:none;stroke:black;stroke-width:0.42px;"/>
            <path d="M8.152,7.834C7.905,7.721 7.612,7.83 7.499,8.078C7.386,8.325 7.496,8.618 7.743,8.731L9.084,9.343C9.332,9.456 9.625,9.347 9.738,9.099C9.851,8.852 9.741,8.559 9.494,8.446L8.152,7.834Z" style="fill:white;"/>
            <path d="M6.927,7.462C6.927,7.176 6.695,6.943 6.408,6.943C6.122,6.943 5.889,7.176 5.889,7.462L5.889,7.47C5.889,7.757 6.122,7.99 6.408,7.99C6.695,7.99 6.927,7.757 6.927,7.47L6.927,7.462Z" style="fill:white;"/>
        </g>
    </g>
</svg>
