<?xml version="1.0" encoding="UTF-8" standalone="no"?>
<!DOCTYPE svg PUBLIC "-//W3C//DTD SVG 1.1//EN" "http://www.w3.org/Graphics/SVG/1.1/DTD/svg11.dtd">
<svg width="100%" height="100%" viewBox="0 0 24 24" version="1.1" xmlns="http://www.w3.org/2000/svg" xmlns:xlink="http://www.w3.org/1999/xlink" xml:space="preserve" xmlns:serif="http://www.serif.com/" style="fill-rule:evenodd;clip-rule:evenodd;stroke-linejoin:round;stroke-miterlimit:1.41421;">
    <g id="ic_event">
        <g id="icon">
        </g>
    </g>
    <g id="ic_video">
        <rect id="bg" x="0" y="0" width="24" height="24" style="fill:rgb(235,235,235);fill-opacity:0;"/>
        <g id="icon1" serif:id="icon">
            <path d="M17.307,10.729C17.803,10.964 18.121,11.462 18.124,12.011C18.127,12.56 17.815,13.061 17.321,13.301C14.014,14.908 8.51,17.582 5.939,18.831C5.64,18.977 5.286,18.956 5.007,18.776C4.727,18.597 4.56,18.285 4.567,17.952C4.629,15.056 4.761,8.898 4.819,6.184C4.825,5.891 4.979,5.621 5.228,5.467C5.478,5.313 5.788,5.295 6.053,5.42C8.475,6.563 13.983,9.161 17.307,10.729Z" style="fill:rgb(255,81,111);"/>
            <path d="M13.859,8.929L17.45,10.725C17.933,10.966 18.238,11.46 18.238,12C18.238,12.54 17.933,13.034 17.45,13.275C14.292,14.854 8.977,17.512 6.063,18.968C5.621,19.189 5.097,19.166 4.676,18.906C4.647,18.888 4.62,18.869 4.592,18.85L16.435,12.42C16.743,12.266 16.947,11.961 16.971,11.617C16.995,11.273 16.836,10.942 16.552,10.746L13.859,8.929Z" style="fill:rgb(244,0,60);"/>
            <path d="M5.451,4.881L5.496,4.883L5.541,4.886L5.586,4.89L5.63,4.896L5.675,4.903L5.719,4.912L5.763,4.922L5.807,4.933L5.851,4.946L5.894,4.96L5.937,4.976L5.98,4.993L6.022,5.012L6.063,5.032L17.45,10.725L17.494,10.748L17.538,10.773L17.581,10.799L17.622,10.827L17.662,10.856L17.702,10.886L17.74,10.917L17.776,10.95L17.812,10.984L17.846,11.019L17.879,11.055L17.911,11.092L17.942,11.13L17.971,11.169L17.998,11.209L18.025,11.25L18.05,11.292L18.073,11.335L18.095,11.379L18.116,11.423L18.135,11.468L18.152,11.514L18.168,11.56L18.182,11.607L18.195,11.654L18.206,11.702L18.216,11.751L18.224,11.8L18.23,11.85L18.234,11.899L18.237,11.95L18.238,12L18.237,12.05L18.234,12.101L18.23,12.15L18.224,12.2L18.216,12.249L18.206,12.298L18.195,12.346L18.182,12.393L18.168,12.44L18.152,12.486L18.135,12.532L18.116,12.577L18.095,12.621L18.073,12.665L18.05,12.708L18.025,12.75L17.998,12.791L17.971,12.831L17.942,12.87L17.911,12.908L17.879,12.945L17.846,12.981L17.812,13.016L17.776,13.05L17.74,13.083L17.702,13.114L17.662,13.144L17.622,13.173L17.581,13.201L17.538,13.227L17.494,13.252L17.45,13.275L6.063,18.968L6.022,18.988L5.98,19.007L5.937,19.024L5.894,19.04L5.851,19.054L5.807,19.067L5.763,19.078L5.719,19.088L5.675,19.097L5.63,19.104L5.586,19.11L5.541,19.114L5.496,19.117L5.451,19.119L5.407,19.119L5.362,19.117L5.317,19.115L5.272,19.111L5.228,19.105L5.183,19.098L5.139,19.09L5.095,19.08L5.051,19.069L5.008,19.056L4.965,19.042L4.922,19.027L4.88,19.01L4.838,18.992L4.797,18.973L4.756,18.952L4.716,18.93L4.676,18.906L4.637,18.881L4.599,18.855L4.562,18.828L4.526,18.799L4.492,18.77L4.458,18.74L4.425,18.709L4.393,18.676L4.363,18.643L4.333,18.609L4.305,18.574L4.278,18.538L4.251,18.502L4.227,18.464L4.203,18.426L4.18,18.387L4.159,18.348L4.139,18.308L4.121,18.267L4.103,18.225L4.087,18.184L4.072,18.141L4.059,18.098L4.047,18.055L4.036,18.011L4.026,17.966L4.018,17.921L4.012,17.876L4.007,17.831L4.003,17.785L4.001,17.739L4,17.693L4,6.307L4.001,6.261L4.003,6.215L4.007,6.169L4.012,6.124L4.018,6.079L4.026,6.034L4.036,5.989L4.047,5.945L4.059,5.902L4.072,5.859L4.087,5.816L4.103,5.775L4.121,5.733L4.139,5.692L4.159,5.652L4.18,5.613L4.203,5.574L4.227,5.536L4.251,5.498L4.278,5.462L4.305,5.426L4.333,5.391L4.363,5.357L4.393,5.324L4.425,5.291L4.458,5.26L4.492,5.23L4.526,5.201L4.562,5.172L4.599,5.145L4.637,5.119L4.676,5.094L4.716,5.07L4.756,5.048L4.797,5.027L4.838,5.008L4.88,4.99L4.922,4.973L4.965,4.958L5.008,4.944L5.051,4.931L5.095,4.92L5.139,4.91L5.183,4.902L5.228,4.895L5.272,4.889L5.317,4.885L5.362,4.883L5.407,4.881L5.451,4.881ZM5.38,5.299L5.349,5.301L5.317,5.304L5.286,5.308L5.254,5.313L5.223,5.318L5.192,5.325L5.161,5.333L5.13,5.342L5.1,5.352L5.07,5.363L5.04,5.375L5.01,5.387L4.981,5.401L4.952,5.416L4.923,5.432L4.895,5.449L4.868,5.466L4.841,5.485L4.815,5.504L4.789,5.524L4.765,5.545L4.741,5.566L4.717,5.588L4.695,5.611L4.673,5.635L4.652,5.659L4.632,5.683L4.613,5.709L4.595,5.735L4.577,5.761L4.56,5.788L4.544,5.816L4.529,5.844L4.515,5.872L4.502,5.901L4.49,5.93L4.478,5.96L4.468,5.99L4.458,6.02L4.45,6.051L4.442,6.082L4.435,6.114L4.43,6.145L4.425,6.177L4.421,6.209L4.419,6.242L4.417,6.274L4.417,6.31L4.417,17.69L4.417,17.726L4.419,17.758L4.421,17.791L4.425,17.823L4.43,17.855L4.435,17.886L4.442,17.918L4.45,17.949L4.458,17.98L4.468,18.01L4.478,18.04L4.49,18.07L4.502,18.099L4.515,18.128L4.529,18.156L4.544,18.184L4.56,18.212L4.577,18.239L4.595,18.265L4.613,18.291L4.632,18.317L4.652,18.341L4.673,18.365L4.695,18.389L4.717,18.412L4.741,18.434L4.765,18.455L4.789,18.476L4.815,18.496L4.841,18.515L4.868,18.534L4.895,18.551L4.923,18.568L4.952,18.584L4.981,18.599L5.01,18.613L5.04,18.625L5.07,18.637L5.1,18.648L5.13,18.658L5.161,18.667L5.192,18.675L5.223,18.682L5.254,18.687L5.286,18.692L5.317,18.696L5.349,18.699L5.38,18.701L5.412,18.702L5.444,18.702L5.476,18.701L5.507,18.699L5.539,18.696L5.571,18.692L5.602,18.687L5.634,18.681L5.665,18.673L5.696,18.665L5.727,18.656L5.757,18.646L5.788,18.635L5.818,18.623L5.847,18.61L5.88,18.594L17.26,12.904L17.295,12.886L17.326,12.868L17.356,12.85L17.385,12.83L17.414,12.81L17.442,12.788L17.468,12.766L17.495,12.743L17.52,12.719L17.544,12.694L17.567,12.669L17.59,12.643L17.611,12.616L17.632,12.588L17.652,12.56L17.67,12.53L17.688,12.501L17.704,12.471L17.72,12.44L17.735,12.408L17.748,12.377L17.76,12.344L17.772,12.311L17.782,12.278L17.791,12.245L17.799,12.211L17.805,12.176L17.811,12.142L17.815,12.107L17.818,12.071L17.82,12.036L17.821,12L17.82,11.964L17.818,11.929L17.815,11.893L17.811,11.858L17.805,11.824L17.799,11.789L17.791,11.755L17.782,11.722L17.772,11.689L17.76,11.656L17.748,11.623L17.735,11.592L17.72,11.56L17.704,11.529L17.688,11.499L17.67,11.47L17.652,11.44L17.632,11.412L17.611,11.384L17.59,11.357L17.567,11.331L17.544,11.306L17.52,11.281L17.495,11.257L17.468,11.234L17.442,11.212L17.414,11.19L17.385,11.17L17.356,11.15L17.326,11.132L17.295,11.114L17.26,11.096L5.88,5.406L5.847,5.39L5.818,5.377L5.788,5.365L5.757,5.354L5.727,5.344L5.696,5.335L5.665,5.327L5.634,5.319L5.602,5.313L5.571,5.308L5.539,5.304L5.507,5.301L5.476,5.299L5.444,5.298L5.412,5.298L5.38,5.299Z"/>
            <path d="M8.152,7.834C7.905,7.721 7.612,7.83 7.499,8.078C7.386,8.325 7.496,8.618 7.743,8.731L9.084,9.343C9.332,9.456 9.625,9.347 9.738,9.099C9.851,8.852 9.741,8.559 9.494,8.446L8.152,7.834Z" style="fill:white;"/>
            <path d="M6.927,7.462C6.927,7.176 6.695,6.943 6.408,6.943C6.122,6.943 5.889,7.176 5.889,7.462L5.889,7.47C5.889,7.757 6.122,7.99 6.408,7.99C6.695,7.99 6.927,7.757 6.927,7.47L6.927,7.462Z" style="fill:white;"/>
        </g>
    </g>
</svg>
